<svg width="35" height="41" viewBox="0 0 35 41" fill="none" xmlns="http://www.w3.org/2000/svg">
<path d="M29.2419 39.0551C27.0115 41.2022 24.5763 40.8632 22.2321 39.8461C19.7513 38.8065 17.4754 38.7612 14.8581 39.8461C11.5808 41.2474 9.85108 40.8406 7.89379 39.0551C-3.21268 27.6866 -1.57402 10.374 11.0346 9.74117C14.107 9.89937 16.2464 11.4137 18.0444 11.5493C20.73 11.0068 23.3017 9.44735 26.1694 9.65076C29.606 9.92198 32.2006 11.2781 33.9075 13.719C26.8067 17.9454 28.4908 27.2346 34.9999 29.8337C33.7027 33.2239 32.0185 36.5915 29.2191 39.0777L29.2419 39.0551ZM17.8168 9.60556C17.4754 4.56547 21.5948 0.406824 26.3287 0C26.9887 5.83114 21.0031 10.1706 17.8168 9.60556Z" fill="black"/>
</svg>
