<svg width="19" height="18" viewBox="0 0 19 18" fill="none" xmlns="http://www.w3.org/2000/svg">
<path d="M14.0125 1.91236e-08C14.5541 -7.87746e-05 15.0756 0.243332 15.4715 0.68104C15.8674 1.11875 16.1082 1.71811 16.1453 2.358L16.15 2.53125V15.1875C16.1498 15.3281 16.194 15.4636 16.274 15.5675C16.354 15.6714 16.4639 15.736 16.5821 15.7487C16.7003 15.7614 16.8182 15.7213 16.9127 15.6361C17.0071 15.551 17.0713 15.4271 17.0924 15.2887L17.1 15.1875V3.39075C17.5958 3.4564 18.0567 3.72539 18.4026 4.15112C18.7486 4.57685 18.9579 5.13248 18.9943 5.72175L19 5.90625V14.3438C19.0001 15.2777 18.6983 16.1762 18.1567 16.855C17.6151 17.5338 16.8747 17.9415 16.0873 17.9944L15.9125 18H3.0875C2.29887 18.0001 1.54011 17.6428 0.966881 17.0014C0.393648 16.36 0.0493988 15.4832 0.00475013 14.5507L1.61488e-08 14.3438V2.53125C-6.65208e-05 1.88986 0.205481 1.27235 0.575101 0.803528C0.944721 0.334704 1.45085 0.0495249 1.9912 0.00562515L2.1375 1.91236e-08H14.0125ZM6.8856 7.875H3.5606C3.37163 7.875 3.19041 7.9639 3.05679 8.12213C2.92317 8.28036 2.8481 8.49497 2.8481 8.71875V12.6562C2.8481 13.122 3.1673 13.5 3.5606 13.5H6.8856C7.07457 13.5 7.25579 13.4111 7.38941 13.2529C7.52303 13.0946 7.5981 12.88 7.5981 12.6562V8.71875C7.5981 8.49497 7.52303 8.28036 7.38941 8.12213C7.25579 7.9639 7.07457 7.875 6.8856 7.875ZM12.5894 11.8125H10.2163L10.1194 11.8204C9.94056 11.8495 9.77773 11.958 9.66381 12.1238C9.54989 12.2896 9.49337 12.5005 9.50568 12.7138C9.51798 12.927 9.59819 13.1268 9.7301 13.2728C9.86201 13.4187 10.0358 13.4999 10.2163 13.5H12.5894L12.6863 13.4921C12.8651 13.463 13.028 13.3545 13.1419 13.1887C13.2558 13.0229 13.3123 12.812 13.3 12.5987C13.2877 12.3855 13.2075 12.1857 13.0756 12.0397C12.9437 11.8938 12.7699 11.8126 12.5894 11.8125ZM6.1731 9.5625V11.8125H4.2731V9.5625H6.1731ZM12.5875 7.875L10.2144 7.88063L10.1175 7.88737C9.93692 7.91444 9.77194 8.02232 9.65641 8.18887C9.54087 8.35542 9.48354 8.56802 9.49618 8.78304C9.50882 8.99806 9.59047 9.19921 9.72438 9.34519C9.85829 9.49118 10.0343 9.57095 10.2163 9.56812L12.5904 9.5625L12.6863 9.55462C12.8652 9.52547 13.0281 9.41695 13.142 9.25099C13.256 9.08504 13.3124 8.87405 13.3 8.66068C13.2876 8.44731 13.2072 8.2475 13.0751 8.10164C12.943 7.95579 12.7691 7.87478 12.5885 7.875M12.5894 3.942H3.5606L3.4637 3.94988C3.28486 3.97901 3.12203 4.08746 3.00811 4.25329C2.89419 4.41912 2.83767 4.62998 2.84998 4.84326C2.86228 5.05654 2.94249 5.25634 3.0744 5.40228C3.20631 5.54823 3.38008 5.62943 3.5606 5.6295H12.5894L12.6863 5.62275C12.8667 5.59566 13.0315 5.48793 13.147 5.32163C13.2624 5.15533 13.3199 4.94304 13.3075 4.72823C13.2951 4.51342 13.2138 4.31235 13.0803 4.16618C12.9468 4.02001 12.7712 3.93981 12.5894 3.942Z" fill="black"/>
</svg>
