<svg width="12" height="11" viewBox="0 0 12 11" fill="none" xmlns="http://www.w3.org/2000/svg">
<path d="M5.68717 8.94833L2.66217 10.775C2.57329 10.8189 2.49079 10.8367 2.41467 10.8283C2.33912 10.8194 2.26551 10.7933 2.19384 10.75C2.12162 10.7056 2.06717 10.6428 2.03051 10.5617C1.99384 10.4806 1.99051 10.3919 2.02051 10.2958L2.82551 6.87083L0.163008 4.5625C0.0880079 4.50139 0.0385635 4.42833 0.0146746 4.34333C-0.0092143 4.25833 -0.00393648 4.17694 0.030508 4.09917C0.0649524 4.02139 0.110786 3.9575 0.168008 3.9075C0.225786 3.85917 0.303564 3.82639 0.401341 3.80917L3.91467 3.5025L5.28467 0.259167C5.32245 0.1675 5.3769 0.101389 5.44801 0.0608333C5.51912 0.0202777 5.59884 0 5.68717 0C5.77551 0 5.85551 0.0202777 5.92717 0.0608333C5.99884 0.101389 6.05301 0.1675 6.08967 0.259167L7.45967 3.5025L10.9722 3.80917C11.0705 3.82583 11.1486 3.85889 11.2063 3.90833C11.2641 3.95722 11.3102 4.02083 11.3447 4.09917C11.3786 4.17694 11.3836 4.25833 11.3597 4.34333C11.3358 4.42833 11.2863 4.50139 11.2113 4.5625L8.54884 6.87083L9.35384 10.2958C9.38495 10.3908 9.3819 10.4792 9.34467 10.5608C9.30745 10.6425 9.25273 10.7053 9.18051 10.7492C9.1094 10.7936 9.03579 10.82 8.95967 10.8283C8.88412 10.8367 8.8019 10.8189 8.71301 10.775L5.68717 8.94833Z" fill="#FABB05"/>
</svg>
