<svg width="12" height="18" viewBox="0 0 12 18" fill="none" xmlns="http://www.w3.org/2000/svg">
<path d="M5.54167 8.48763C5.01676 8.48763 4.51335 8.25231 4.14218 7.83343C3.77102 7.41455 3.5625 6.84643 3.5625 6.25404C3.5625 5.66166 3.77102 5.09354 4.14218 4.67466C4.51335 4.25578 5.01676 4.02046 5.54167 4.02046C6.06657 4.02046 6.56998 4.25578 6.94115 4.67466C7.31231 5.09354 7.52083 5.66166 7.52083 6.25404C7.52083 6.54736 7.46964 6.83781 7.37018 7.1088C7.27072 7.37979 7.12493 7.62602 6.94115 7.83343C6.75737 8.04084 6.53918 8.20536 6.29906 8.31761C6.05894 8.42986 5.80157 8.48763 5.54167 8.48763ZM5.54167 0C4.07193 0 2.66238 0.658906 1.62312 1.83177C0.583852 3.00463 0 4.59537 0 6.25404C0 10.9446 5.54167 17.8687 5.54167 17.8687C5.54167 17.8687 11.0833 10.9446 11.0833 6.25404C11.0833 4.59537 10.4995 3.00463 9.46022 1.83177C8.42095 0.658906 7.01141 0 5.54167 0Z" fill="#FA6D8C"/>
</svg>
