<svg width="33" height="33" viewBox="0 0 33 33" fill="none" xmlns="http://www.w3.org/2000/svg">
<path opacity="0.16" d="M7.22077 13.7156L23.2533 6.08161C25.5908 4.96786 28.03 7.40849 26.9176 9.74736L19.2836 25.7785C18.24 27.9689 15.0775 27.8341 14.225 25.5612L12.8143 21.7951C12.6764 21.4277 12.4615 21.0941 12.1841 20.8166C11.9066 20.5391 11.5729 20.3242 11.2055 20.1864L7.43802 18.7742C5.16652 17.9217 5.03039 14.7592 7.22077 13.7156Z" fill="black"/>
<path d="M7.22077 13.7156L23.2533 6.08161C25.5908 4.96786 28.03 7.40849 26.9176 9.74736L19.2836 25.7785C18.24 27.9689 15.0775 27.8341 14.225 25.5612L12.8143 21.7951C12.6764 21.4277 12.4615 21.0941 12.1841 20.8166C11.9066 20.5391 11.5729 20.3242 11.2055 20.1864L7.43802 18.7742C5.16652 17.9217 5.03039 14.7592 7.22077 13.7156Z" stroke="black" stroke-width="2" stroke-linecap="round" stroke-linejoin="round"/>
</svg>
