<svg width="33" height="33" viewBox="0 0 33 33" fill="none" xmlns="http://www.w3.org/2000/svg">
<path d="M16.5 2.75C18.6345 2.74992 20.686 3.57715 22.2234 5.05789C23.7608 6.53863 24.6645 8.5576 24.7445 10.6906L24.75 11H26.125C26.8188 10.9998 27.487 11.2618 27.9958 11.7336C28.5045 12.2053 28.8161 12.8519 28.8681 13.5438L28.875 13.75V27.5C28.8752 28.1938 28.6132 28.862 28.1414 29.3708C27.6697 29.8795 27.0231 30.1911 26.3312 30.2431L26.125 30.25H6.875C6.18121 30.2502 5.51297 29.9882 5.00425 29.5164C4.49552 29.0447 4.18391 28.3981 4.13188 27.7062L4.125 27.5V13.75C4.12478 13.0562 4.38681 12.388 4.85856 11.8792C5.33031 11.3705 5.97691 11.0589 6.66875 11.0069L6.875 11H8.25C8.25 8.81196 9.11919 6.71354 10.6664 5.16637C12.2135 3.61919 14.312 2.75 16.5 2.75ZM26.125 13.75H6.875V27.5H26.125V13.75ZM16.5 16.5C17.0866 16.5002 17.6577 16.6879 18.13 17.0358C18.6023 17.3836 18.951 17.8734 19.1251 18.4335C19.2993 18.9936 19.2898 19.5947 19.098 20.149C18.9063 20.7034 18.5423 21.1819 18.0592 21.5146L17.875 21.6315V23.375C17.8746 23.7255 17.7404 24.0625 17.4998 24.3174C17.2593 24.5722 16.9304 24.7256 16.5806 24.7461C16.2307 24.7666 15.8862 24.6528 15.6175 24.4279C15.3487 24.2029 15.176 23.8839 15.1346 23.5359L15.125 23.375V21.6315C14.6008 21.3288 14.1911 20.8616 13.9594 20.3023C13.7278 19.743 13.6872 19.123 13.8438 18.5382C14.0005 17.9535 14.3457 17.4368 14.826 17.0683C15.3062 16.6998 15.8947 16.5 16.5 16.5ZM16.5 5.5C15.0413 5.5 13.6424 6.07946 12.6109 7.11091C11.5795 8.14236 11 9.54131 11 11H22C22 9.54131 21.4205 8.14236 20.3891 7.11091C19.3576 6.07946 17.9587 5.5 16.5 5.5Z" fill="#E39898"/>
</svg>
