<svg width="23" height="20" viewBox="0 0 23 20" fill="none" xmlns="http://www.w3.org/2000/svg">
<path d="M11.5 1C14.4592 1 17.115 1.93182 19.0107 3.39453C20.9054 4.85651 21.9999 6.80738 22 8.88867C22 10.97 20.9055 12.9208 19.0107 14.3828C17.115 15.8456 14.4593 16.7773 11.5 16.7773C10.1672 16.7773 8.88957 16.591 7.71094 16.2598L7.20703 16.1182L6.80273 16.4521C5.41072 17.6035 3.86943 18.2355 2.59082 18.584C3.78556 16.9697 4.09963 15.7764 4.15918 15.0859L4.2041 14.5586L3.79297 14.2236C2.02142 12.7837 1 10.8947 1 8.88867C1.00008 6.80738 2.09456 4.85651 3.98926 3.39453C5.88498 1.93182 8.54076 1 11.5 1Z" fill="white" stroke="black" stroke-width="2"/>
</svg>
