<svg width="13" height="14" viewBox="0 0 13 14" fill="none" xmlns="http://www.w3.org/2000/svg">
<path d="M8.66721 0H4.33361V1.24438H8.66721V0ZM5.77814 8.08847H7.22268V4.35533H5.77814V8.08847ZM11.578 3.97579L12.6036 3.09228C12.293 2.77497 11.9535 2.47632 11.5852 2.215L10.5596 3.09851C9.40928 2.30097 7.97698 1.86628 6.50041 1.86657C2.91074 1.86657 0 4.374 0 7.46628C0 10.5586 2.90352 13.066 6.50041 13.066C7.72415 13.0666 8.9232 12.7693 9.95944 12.2086C10.9957 11.6478 11.827 10.8463 12.3576 9.89639C12.8882 8.94646 13.0965 7.88673 12.9586 6.83927C12.8207 5.7918 12.3421 4.79921 11.578 3.97579ZM6.50041 11.8216C3.70523 11.8216 1.44454 9.87415 1.44454 7.46628C1.44454 5.0584 3.70523 3.11095 6.50041 3.11095C9.29558 3.11095 11.5563 5.0584 11.5563 7.46628C11.5563 9.87415 9.29558 11.8216 6.50041 11.8216Z" fill="#003366"/>
</svg>
