<svg width="36" height="23" viewBox="0 0 36 23" fill="none" xmlns="http://www.w3.org/2000/svg">
<path d="M3.6 0C2.64522 0 1.72955 0.302901 1.05442 0.842068C0.379284 1.38123 0 2.1125 0 2.875V8.625C0.954779 8.625 1.87045 8.9279 2.54558 9.46707C3.22072 10.0062 3.6 10.7375 3.6 11.5C3.6 12.2625 3.22072 12.9938 2.54558 13.5329C1.87045 14.0721 0.954779 14.375 0 14.375V20.125C0 20.8875 0.379284 21.6188 1.05442 22.1579C1.72955 22.6971 2.64522 23 3.6 23H32.4C33.3548 23 34.2705 22.6971 34.9456 22.1579C35.6207 21.6188 36 20.8875 36 20.125V14.375C35.0452 14.375 34.1295 14.0721 33.4544 13.5329C32.7793 12.9938 32.4 12.2625 32.4 11.5C32.4 10.7375 32.7793 10.0062 33.4544 9.46707C34.1295 8.9279 35.0452 8.625 36 8.625V2.875C36 2.1125 35.6207 1.38123 34.9456 0.842068C34.2705 0.302901 33.3548 0 32.4 0H3.6ZM24.3 4.3125L27 6.46875L11.7 18.6875L9 16.5312L24.3 4.3125ZM12.258 4.37C14.022 4.37 15.444 5.50563 15.444 6.91438C15.444 7.58919 15.1083 8.23636 14.5108 8.71352C13.9134 9.19068 13.103 9.45875 12.258 9.45875C10.494 9.45875 9.072 8.32313 9.072 6.91438C9.072 6.23957 9.40767 5.59239 10.0052 5.11523C10.6026 4.63807 11.413 4.37 12.258 4.37ZM23.742 13.5413C25.506 13.5413 26.928 14.6769 26.928 16.0856C26.928 16.7604 26.5923 17.4076 25.9948 17.8848C25.3974 18.3619 24.587 18.63 23.742 18.63C21.978 18.63 20.556 17.4944 20.556 16.0856C20.556 15.4108 20.8917 14.7636 21.4892 14.2865C22.0866 13.8093 22.897 13.5413 23.742 13.5413Z" fill="black"/>
</svg>
