<svg width="17" height="21" viewBox="0 0 17 21" fill="none" xmlns="http://www.w3.org/2000/svg">
<path d="M2.25 20H6.81C6.38109 19.5539 6.01809 19.0488 5.732 18.5H2.25C2.05109 18.5 1.86032 18.421 1.71967 18.2803C1.57902 18.1397 1.5 17.9489 1.5 17.75V2.25C1.5 2.05109 1.57902 1.86032 1.71967 1.71967C1.86032 1.57902 2.05109 1.5 2.25 1.5H9.75C9.94891 1.5 10.1397 1.57902 10.2803 1.71967C10.421 1.86032 10.5 2.05109 10.5 2.25V9.076C10.9962 9.00002 11.4995 8.98089 12 9.019V2.25C12 1.65326 11.7629 1.08097 11.341 0.65901C10.919 0.237053 10.3467 0 9.75 0H2.25C1.65326 0 1.08097 0.237053 0.65901 0.65901C0.237053 1.08097 0 1.65326 0 2.25V17.75C0 18.3467 0.237053 18.919 0.65901 19.341C1.08097 19.7629 1.65326 20 2.25 20ZM5.25 13.709C5.5337 12.7208 6.04777 11.814 6.75 11.063V7.508L7.711 8.469C7.83805 8.59628 8.0066 8.67367 8.18593 8.68707C8.36527 8.70047 8.54345 8.64899 8.688 8.542L8.772 8.469C8.89902 8.34201 8.97625 8.17366 8.98964 7.99455C9.00304 7.81544 8.95171 7.63747 8.845 7.493L8.772 7.409L6.53 5.167L6.492 5.131L6.43 5.082L6.363 5.041L6.303 5.011L6.202 4.975L6.139 4.96L6.047 4.949H5.953L5.862 4.96L5.765 4.985L5.653 5.032L5.577 5.078L5.47 5.167L3.228 7.409C3.09504 7.543 3.0175 7.72221 3.01086 7.91086C3.00422 8.09951 3.06896 8.28373 3.19216 8.42675C3.31536 8.56977 3.48796 8.66107 3.67552 8.68244C3.86308 8.7038 4.05179 8.65365 4.204 8.542L4.289 8.469L5.249 7.509L5.25 13.709ZM17 15.5C17 16.9587 16.4205 18.3576 15.3891 19.3891C14.3576 20.4205 12.9587 21 11.5 21C10.0413 21 8.64236 20.4205 7.61091 19.3891C6.57946 18.3576 6 16.9587 6 15.5C6 14.0413 6.57946 12.6424 7.61091 11.6109C8.64236 10.5795 10.0413 10 11.5 10C12.9587 10 14.3576 10.5795 15.3891 11.6109C16.4205 12.6424 17 14.0413 17 15.5ZM14.854 13.146C14.8076 13.0994 14.7524 13.0625 14.6916 13.0373C14.6309 13.0121 14.5658 12.9991 14.5 12.9991C14.4342 12.9991 14.3691 13.0121 14.3084 13.0373C14.2476 13.0625 14.1924 13.0994 14.146 13.146L10.5 16.793L8.854 15.146C8.76011 15.0521 8.63278 14.9994 8.5 14.9994C8.36722 14.9994 8.23989 15.0521 8.146 15.146C8.05211 15.2399 7.99937 15.3672 7.99937 15.5C7.99937 15.6328 8.05211 15.7601 8.146 15.854L10.146 17.854C10.1924 17.9006 10.2476 17.9375 10.3084 17.9627C10.3691 17.9879 10.4342 18.0009 10.5 18.0009C10.5658 18.0009 10.6309 17.9879 10.6916 17.9627C10.7524 17.9375 10.8076 17.9006 10.854 17.854L14.854 13.854C14.9006 13.8076 14.9375 13.7524 14.9627 13.6916C14.9879 13.6309 15.0009 13.5658 15.0009 13.5C15.0009 13.4342 14.9879 13.3691 14.9627 13.3084C14.9375 13.2476 14.9006 13.1924 14.854 13.146Z" fill="black"/>
</svg>
