<svg width="44" height="44" viewBox="0 0 44 44" fill="none" xmlns="http://www.w3.org/2000/svg">
<path d="M16.9585 40.3333L16.2252 34.4666C15.828 34.3138 15.454 34.1305 15.1032 33.9166C14.7524 33.7027 14.4084 33.4736 14.071 33.2291L8.61686 35.5208L3.5752 26.8125L8.29603 23.2375C8.26547 23.0236 8.2502 22.8176 8.2502 22.6196V21.3821C8.2502 21.1829 8.26547 20.9763 8.29603 20.7625L3.5752 17.1875L8.61686 8.47913L14.071 10.7708C14.4071 10.5263 14.7585 10.2972 15.1252 10.0833C15.4919 9.8694 15.8585 9.68607 16.2252 9.53329L16.9585 3.66663H27.0419L27.7752 9.53329C28.1724 9.68607 28.547 9.8694 28.899 10.0833C29.251 10.2972 29.5945 10.5263 29.9294 10.7708L35.3835 8.47913L40.4252 17.1875L35.7044 20.7625C35.7349 20.9763 35.7502 21.1829 35.7502 21.3821V22.6178C35.7502 22.817 35.7196 23.0236 35.6585 23.2375L40.3794 26.8125L35.3377 35.5208L29.9294 33.2291C29.5933 33.4736 29.2419 33.7027 28.8752 33.9166C28.5085 34.1305 28.1419 34.3138 27.7752 34.4666L27.0419 40.3333H16.9585ZM20.1669 36.6666H23.7877L24.4294 31.8083C25.3766 31.5639 26.2554 31.2051 27.0657 30.7321C27.876 30.2591 28.6167 29.6859 29.2877 29.0125L33.8252 30.8916L35.6127 27.775L31.671 24.7958C31.8238 24.368 31.9308 23.9176 31.9919 23.4446C32.053 22.9716 32.0835 22.4901 32.0835 22C32.0835 21.5098 32.053 21.0289 31.9919 20.5571C31.9308 20.0854 31.8238 19.6343 31.671 19.2041L35.6127 16.225L33.8252 13.1083L29.2877 15.0333C28.6155 14.3305 27.8748 13.7426 27.0657 13.2696C26.2566 12.7966 25.3778 12.4373 24.4294 12.1916L23.8335 7.33329H20.2127L19.571 12.1916C18.6238 12.4361 17.7456 12.7954 16.9365 13.2696C16.1274 13.7438 15.3861 14.3165 14.7127 14.9875L10.1752 13.1083L8.38769 16.225L12.3294 19.1583C12.1766 19.6166 12.0696 20.075 12.0085 20.5333C11.9474 20.9916 11.9169 21.4805 11.9169 22C11.9169 22.4888 11.9474 22.9625 12.0085 23.4208C12.0696 23.8791 12.1766 24.3375 12.3294 24.7958L8.38769 27.775L10.1752 30.8916L14.7127 28.9666C15.3849 29.6694 16.1262 30.2579 16.9365 30.7321C17.7469 31.2064 18.625 31.5651 19.571 31.8083L20.1669 36.6666ZM22.0919 28.4166C23.8641 28.4166 25.3766 27.7902 26.6294 26.5375C27.8821 25.2847 28.5085 23.7722 28.5085 22C28.5085 20.2277 27.8821 18.7152 26.6294 17.4625C25.3766 16.2097 23.8641 15.5833 22.0919 15.5833C20.2891 15.5833 18.7686 16.2097 17.5305 17.4625C16.2924 18.7152 15.674 20.2277 15.6752 22C15.6764 23.7722 16.2955 25.2847 17.5324 26.5375C18.7693 27.7902 20.2891 28.4166 22.0919 28.4166Z" fill="black"/>
</svg>
