<svg width="47" height="47" viewBox="0 0 47 47" fill="none" xmlns="http://www.w3.org/2000/svg">
<g clip-path="url(#clip0_82_100)">
<path d="M38.05 25.4192C38.1283 24.7925 38.1871 24.1658 38.1871 23.5C38.1871 22.8342 38.1283 22.2075 38.05 21.5808L42.1821 18.3496C42.5541 18.0558 42.6521 17.5271 42.4171 17.0963L38.5004 10.3204C38.385 10.1184 38.2013 9.96405 37.9824 9.8851C37.7635 9.80615 37.5236 9.80774 37.3058 9.88959L32.4296 11.8479C31.4112 11.0646 30.3146 10.4183 29.12 9.92876L28.3758 4.73918C28.3426 4.50911 28.227 4.29891 28.0506 4.14764C27.8741 3.99636 27.6487 3.91429 27.4162 3.91668H19.5829C19.0933 3.91668 18.6821 4.26918 18.6233 4.73918L17.8791 9.92876C16.6846 10.4183 15.5879 11.0842 14.5696 11.8479L9.69331 9.88959C9.5795 9.85215 9.46062 9.83234 9.34081 9.83084C9.0079 9.83084 8.67498 10.0071 8.49873 10.3204L4.58206 17.0963C4.32748 17.5271 4.44498 18.0558 4.81706 18.3496L8.94915 21.5808C8.87081 22.2075 8.81206 22.8538 8.81206 23.5C8.81206 24.1463 8.87081 24.7925 8.94915 25.4192L4.81706 28.6504C4.44498 28.9442 4.34706 29.4729 4.58206 29.9038L8.49873 36.6796C8.61418 36.8816 8.79781 37.036 9.01671 37.1149C9.23561 37.1939 9.47548 37.1923 9.69331 37.1104L14.5696 35.1521C15.5879 35.9354 16.6846 36.5817 17.8791 37.0713L18.6233 42.2608C18.6821 42.7308 19.0933 43.0833 19.5829 43.0833H27.4162C27.9058 43.0833 28.3171 42.7308 28.3758 42.2608L29.12 37.0713C30.3146 36.5817 31.4112 35.9158 32.4296 35.1521L37.3058 37.1104C37.4233 37.1496 37.5408 37.1692 37.6583 37.1692C37.9912 37.1692 38.3241 36.9929 38.5004 36.6796L42.4171 29.9038C42.6521 29.4729 42.5541 28.9442 42.1821 28.6504L38.05 25.4192ZM34.1725 22.0704C34.2508 22.6775 34.2704 23.0888 34.2704 23.5C34.2704 23.9113 34.2312 24.3421 34.1725 24.9296L33.8983 27.1425L35.6412 28.5133L37.7562 30.1583L36.3854 32.5279L33.8983 31.5292L31.8616 30.7067L30.0991 32.0383C29.2571 32.665 28.4541 33.135 27.6512 33.4679L25.5754 34.31L25.2621 36.5229L24.8704 39.1667H22.1287L21.7566 36.5229L21.4433 34.31L19.3675 33.4679C18.5254 33.1154 17.7421 32.665 16.9587 32.0775L15.1766 30.7067L13.1008 31.5488L10.6137 32.5475L9.2429 30.1779L11.3579 28.5329L13.1008 27.1621L12.8266 24.9492C12.7679 24.3421 12.7287 23.8917 12.7287 23.5C12.7287 23.1083 12.7679 22.6579 12.8266 22.0704L13.1008 19.8575L11.3579 18.4867L9.2429 16.8417L10.6137 14.4721L13.1008 15.4708L15.1375 16.2933L16.9 14.9617C17.7421 14.335 18.545 13.865 19.3479 13.5321L21.4237 12.69L21.7371 10.4771L22.1287 7.83334H24.8508L25.2229 10.4771L25.5362 12.69L27.6121 13.5321C28.4541 13.8846 29.2375 14.335 30.0208 14.9225L31.8029 16.2933L33.8787 15.4513L36.3658 14.4525L37.7366 16.8221L35.6412 18.4867L33.8983 19.8575L34.1725 22.0704ZM23.4996 15.6667C19.1716 15.6667 15.6662 19.1721 15.6662 23.5C15.6662 27.8279 19.1716 31.3333 23.4996 31.3333C27.8275 31.3333 31.3329 27.8279 31.3329 23.5C31.3329 19.1721 27.8275 15.6667 23.4996 15.6667ZM23.4996 27.4167C21.3454 27.4167 19.5829 25.6542 19.5829 23.5C19.5829 21.3458 21.3454 19.5833 23.4996 19.5833C25.6537 19.5833 27.4162 21.3458 27.4162 23.5C27.4162 25.6542 25.6537 27.4167 23.4996 27.4167Z" fill="black"/>
</g>
<defs>
<clipPath id="clip0_82_100">
<rect width="47" height="47" fill="white"/>
</clipPath>
</defs>
</svg>
