<svg width="11" height="12" viewBox="0 0 11 12" fill="none" xmlns="http://www.w3.org/2000/svg">
<path d="M5.5 11.6286C2.45882 11.6286 0 9.06633 0 5.89723C0 2.72814 2.45882 0.165894 5.5 0.165894C8.54118 0.165894 11 2.72814 11 5.89723C11 9.06633 8.54118 11.6286 5.5 11.6286ZM5.5 0.840169C2.81471 0.840169 0.647059 3.09899 0.647059 5.89723C0.647059 8.69547 2.81471 10.9543 5.5 10.9543C8.18529 10.9543 10.3529 8.69547 10.3529 5.89723C10.3529 3.09899 8.18529 0.840169 5.5 0.840169Z" fill="#FA6D8C"/>
<path d="M5.11108 2.25H5.88886V9.54443H5.11108V2.25Z" fill="#FA6D8C"/>
<path d="M2 6.30249V5.492H9V6.30249L2 6.30249Z" fill="#FA6D8C"/>
</svg>

