<svg width="28" height="20" viewBox="0 0 28 20" fill="none" xmlns="http://www.w3.org/2000/svg">
<path d="M2.8 0C2.05739 0 1.3452 0.258111 0.820101 0.717551C0.294999 1.17699 0 1.80013 0 2.44987V7.34962C0.742606 7.34962 1.4548 7.60773 1.9799 8.06717C2.505 8.52661 2.8 9.14975 2.8 9.79949C2.8 10.4492 2.505 11.0724 1.9799 11.5318C1.4548 11.9913 0.742606 12.2494 0 12.2494V17.1491C0 17.7989 0.294999 18.422 0.820101 18.8814C1.3452 19.3409 2.05739 19.599 2.8 19.599H25.2C25.9426 19.599 26.6548 19.3409 27.1799 18.8814C27.705 18.422 28 17.7989 28 17.1491V12.2494C27.2574 12.2494 26.5452 11.9913 26.0201 11.5318C25.495 11.0724 25.2 10.4492 25.2 9.79949C25.2 9.14975 25.495 8.52661 26.0201 8.06717C26.5452 7.60773 27.2574 7.34962 28 7.34962V2.44987C28 1.80013 27.705 1.17699 27.1799 0.717551C26.6548 0.258111 25.9426 0 25.2 0H2.8ZM18.9 3.67481L21 5.51221L9.1 15.9242L7 14.0868L18.9 3.67481ZM9.534 3.72381C10.906 3.72381 12.012 4.69151 12.012 5.89195C12.012 6.46697 11.7509 7.01845 11.2862 7.42505C10.8215 7.83165 10.1912 8.06008 9.534 8.06008C8.162 8.06008 7.056 7.09238 7.056 5.89195C7.056 5.31692 7.31707 4.76545 7.78179 4.35884C8.2465 3.95224 8.87679 3.72381 9.534 3.72381ZM18.466 11.5389C19.838 11.5389 20.944 12.5066 20.944 13.707C20.944 14.2821 20.6829 14.8335 20.2182 15.2401C19.7535 15.6468 19.1232 15.8752 18.466 15.8752C17.094 15.8752 15.988 14.9075 15.988 13.707C15.988 13.132 16.2491 12.5805 16.7138 12.1739C17.1785 11.7673 17.8088 11.5389 18.466 11.5389Z" fill="black" fill-opacity="0.9"/>
</svg>
