<svg width="79" height="79" viewBox="0 0 79 79" fill="none" xmlns="http://www.w3.org/2000/svg">
<path d="M34.1786 46.1015C34.4773 49.1923 34.9756 51.4932 35.6735 53.0041C36.3705 54.515 37.6172 55.2708 39.4136 55.2716C39.7506 55.2716 40.053 55.2161 40.353 55.1593C40.6554 55.2161 40.9541 55.2716 41.2899 55.2716C43.083 55.2708 44.3297 54.515 45.03 53.0041C45.7262 51.4932 46.2237 49.1923 46.5224 46.1015L48.1172 22.241C48.4159 17.5899 48.5653 14.2517 48.5653 12.2265C48.5653 9.46809 47.844 7.31781 46.4014 5.77566C44.9531 4.23187 43.0505 3.45956 40.6937 3.45874C40.5702 3.45874 40.4752 3.48713 40.3554 3.49207C40.2357 3.48713 40.1394 3.45874 40.0172 3.45874C37.6579 3.45874 35.7558 4.23105 34.3107 5.77566C32.8665 7.31863 32.1444 9.46932 32.1444 12.2277C32.1444 14.2529 32.2937 17.5911 32.5925 22.2422L34.186 46.1015M40.4011 63.9851C38.1183 63.9867 36.1697 64.7084 34.5551 66.1502C32.9422 67.5985 32.1357 69.3505 32.1357 71.4061C32.1357 73.735 32.9508 75.5615 34.581 76.8855C36.2154 78.2137 38.1188 78.8828 40.29 78.8828C42.5037 78.8811 44.4351 78.2248 46.0842 76.9139C47.7345 75.6018 48.5529 73.7663 48.5529 71.4049C48.5529 69.3493 47.7642 67.5973 46.1866 66.1489C44.6116 64.7097 42.6822 63.9851 40.3962 63.9851" fill="#BE212F"/>
</svg>
