<svg width="31" height="31" viewBox="0 0 31 31" fill="none" xmlns="http://www.w3.org/2000/svg">
<path d="M6.78125 14.5312H26.1562C26.4132 14.5312 26.6596 14.6333 26.8413 14.815C27.0229 14.9967 27.125 15.2431 27.125 15.5C27.125 15.7569 27.0229 16.0033 26.8413 16.185C26.6596 16.3667 26.4132 16.4688 26.1562 16.4688H6.78125C6.52432 16.4688 6.27792 16.3667 6.09624 16.185C5.91456 16.0033 5.8125 15.7569 5.8125 15.5C5.8125 15.2431 5.91456 14.9967 6.09624 14.815C6.27792 14.6333 6.52432 14.5312 6.78125 14.5312Z" fill="black"/>
<path d="M7.18234 15.5L15.2171 23.5329C15.3991 23.7148 15.5012 23.9615 15.5012 24.2188C15.5012 24.476 15.3991 24.7227 15.2171 24.9046C15.0352 25.0865 14.7885 25.1887 14.5313 25.1887C14.274 25.1887 14.0273 25.0865 13.8454 24.9046L5.12665 16.1859C5.03643 16.0959 4.96485 15.989 4.91602 15.8713C4.86718 15.7536 4.84204 15.6274 4.84204 15.5C4.84204 15.3726 4.86718 15.2464 4.91602 15.1287C4.96485 15.011 5.03643 14.9041 5.12665 14.8141L13.8454 6.09538C14.0273 5.91347 14.274 5.81128 14.5313 5.81128C14.7885 5.81128 15.0352 5.91347 15.2171 6.09538C15.3991 6.27728 15.5012 6.524 15.5012 6.78125C15.5012 7.03851 15.3991 7.28522 15.2171 7.46713L7.18234 15.5Z" fill="black"/>
</svg>
