<svg width="42" height="42" viewBox="0 0 42 42" fill="none" xmlns="http://www.w3.org/2000/svg">
<path fill-rule="evenodd" clip-rule="evenodd" d="M35.2695 8.75C37.0545 8.75 38.5 10.1973 38.5 11.9805V15.75C38.501 19.0078 37.4917 22.1858 35.6112 24.8461C33.7307 27.5064 31.0715 29.5181 28 30.604V32.375C28 33.0712 27.7234 33.7389 27.2312 34.2312C26.7389 34.7234 26.0712 35 25.375 35H16.625C15.9288 35 15.2611 34.7234 14.7688 34.2312C14.2766 33.7389 14 33.0712 14 32.375V30.604C10.9285 29.5181 8.26931 27.5064 6.38881 24.8461C4.5083 22.1858 3.49902 19.0078 3.5 15.75V11.9805C3.5 10.1955 4.94725 8.75 6.7305 8.75H35.2695ZM35 15.75V12.25H7V15.75C7 18.9989 8.29062 22.1147 10.5879 24.4121C12.8853 26.7094 16.0011 28 19.25 28H22.75C25.9989 28 29.1147 26.7094 31.4121 24.4121C33.7094 22.1147 35 18.9989 35 15.75Z" fill="black"/>
</svg>
