<svg width="25" height="23" viewBox="0 0 25 23" fill="none" xmlns="http://www.w3.org/2000/svg">
<path d="M12.625 19.4375L12.5 19.5625L12.3625 19.4375C6.425 14.05 2.5 10.4875 2.5 6.875C2.5 4.375 4.375 2.5 6.875 2.5C8.8 2.5 10.675 3.75 11.3375 5.45H13.6625C14.325 3.75 16.2 2.5 18.125 2.5C20.625 2.5 22.5 4.375 22.5 6.875C22.5 10.4875 18.575 14.05 12.625 19.4375ZM18.125 0C15.95 0 13.8625 1.0125 12.5 2.6C11.1375 1.0125 9.05 0 6.875 0C3.025 0 0 3.0125 0 6.875C0 11.5875 4.25 15.45 10.6875 21.2875L12.5 22.9375L14.3125 21.2875C20.75 15.45 25 11.5875 25 6.875C25 3.0125 21.975 0 18.125 0Z" fill="#FB0D0D"/>
</svg>
