<svg width="25" height="25" viewBox="0 0 25 25" fill="none" xmlns="http://www.w3.org/2000/svg">
<path d="M23.6764 12.4999H8.74747M3.47793 12.4999H1.32227M3.47793 12.4999C3.47793 11.8013 3.75546 11.1313 4.24946 10.6373C4.74346 10.1433 5.41347 9.86578 6.1121 9.86578C6.81072 9.86578 7.48073 10.1433 7.97474 10.6373C8.46874 11.1313 8.74627 11.8013 8.74627 12.4999C8.74627 13.1986 8.46874 13.8686 7.97474 14.3626C7.48073 14.8566 6.81072 15.1341 6.1121 15.1341C5.41347 15.1341 4.74346 14.8566 4.24946 14.3626C3.75546 13.8686 3.47793 13.1986 3.47793 12.4999ZM23.6764 20.4834H16.7309M16.7309 20.4834C16.7309 21.1822 16.4527 21.853 15.9586 22.3471C15.4645 22.8412 14.7943 23.1188 14.0956 23.1188C13.3969 23.1188 12.7269 22.84 12.2329 22.346C11.7389 21.852 11.4614 21.182 11.4614 20.4834M16.7309 20.4834C16.7309 19.7846 16.4527 19.1151 15.9586 18.6209C15.4645 18.1268 14.7943 17.8492 14.0956 17.8492C13.3969 17.8492 12.7269 18.1268 12.2329 18.6208C11.7389 19.1148 11.4614 19.7848 11.4614 20.4834M11.4614 20.4834H1.32227M23.6764 4.51649H19.9246M14.655 4.51649H1.32227M14.655 4.51649C14.655 3.81787 14.9325 3.14786 15.4265 2.65385C15.9205 2.15985 16.5906 1.88232 17.2892 1.88232C17.6351 1.88232 17.9776 1.95046 18.2972 2.08284C18.6168 2.21522 18.9072 2.40925 19.1518 2.65385C19.3964 2.89846 19.5905 3.18885 19.7228 3.50844C19.8552 3.82803 19.9233 4.17057 19.9233 4.51649C19.9233 4.86241 19.8552 5.20495 19.7228 5.52454C19.5905 5.84413 19.3964 6.13452 19.1518 6.37913C18.9072 6.62373 18.6168 6.81776 18.2972 6.95014C17.9776 7.08252 17.6351 7.15066 17.2892 7.15066C16.5906 7.15066 15.9205 6.87313 15.4265 6.37913C14.9325 5.88513 14.655 5.21512 14.655 4.51649Z" stroke="black" stroke-width="2.375" stroke-miterlimit="10" stroke-linecap="round"/>
</svg>
