<svg width="16" height="16" viewBox="0 0 16 16" fill="none" xmlns="http://www.w3.org/2000/svg">
<g clip-path="url(#clip0_84_742)">
<path d="M7.50001 4.02313V1C7.50001 0.867392 7.44733 0.740215 7.35356 0.646447C7.25979 0.552678 7.13261 0.5 7.00001 0.5C6.8674 0.5 6.74022 0.552678 6.64645 0.646447C6.55268 0.740215 6.50001 0.867392 6.50001 1V4.02313C5.0905 4.15179 3.78486 4.81889 2.85465 5.88565C1.92445 6.95241 1.4413 8.33671 1.5057 9.75061C1.5701 11.1645 2.1771 12.4992 3.20043 13.4769C4.22376 14.4547 5.58464 15.0004 7.00001 15.0004C8.41537 15.0004 9.77625 14.4547 10.7996 13.4769C11.8229 12.4992 12.4299 11.1645 12.4943 9.75061C12.5587 8.33671 12.0756 6.95241 11.1454 5.88565C10.2152 4.81889 8.90951 4.15179 7.50001 4.02313ZM11.4713 9H9.48563C9.39126 7.2275 8.81126 5.9775 8.27063 5.18375C9.11992 5.43527 9.87635 5.93131 10.4455 6.60997C11.0147 7.28864 11.3715 8.11988 11.4713 9ZM5.51501 10H8.485C8.36 12.095 7.47688 13.3094 7.00001 13.8175C6.52251 13.3081 5.63938 12.0944 5.51501 10ZM5.51501 9C5.64001 6.905 6.52313 5.69062 7.00001 5.1825C7.47751 5.69187 8.36063 6.90563 8.485 9H5.51501ZM5.72938 5.18375C5.18751 5.9775 4.60876 7.2275 4.51438 9H2.52876C2.62854 8.11988 2.98529 7.28864 3.55447 6.60997C4.12366 5.93131 4.88009 5.43527 5.72938 5.18375ZM2.52876 10H4.51438C4.60876 11.7725 5.18876 13.0225 5.72938 13.8162C4.88009 13.5647 4.12366 13.0687 3.55447 12.39C2.98529 11.7114 2.62854 10.8801 2.52876 10ZM8.27063 13.8162C8.81126 13.0225 9.39126 11.7725 9.48563 10H11.4713C11.3715 10.8801 11.0147 11.7114 10.4455 12.39C9.87635 13.0687 9.11992 13.5647 8.27063 13.8162ZM16 5.5C16 5.63261 15.9473 5.75979 15.8536 5.85355C15.7598 5.94732 15.6326 6 15.5 6H15V6.5C15 6.63261 14.9473 6.75979 14.8536 6.85355C14.7598 6.94732 14.6326 7 14.5 7C14.3674 7 14.2402 6.94732 14.1465 6.85355C14.0527 6.75979 14 6.63261 14 6.5V6H13.5C13.3674 6 13.2402 5.94732 13.1465 5.85355C13.0527 5.75979 13 5.63261 13 5.5C13 5.36739 13.0527 5.24021 13.1465 5.14645C13.2402 5.05268 13.3674 5 13.5 5H14V4.5C14 4.36739 14.0527 4.24021 14.1465 4.14645C14.2402 4.05268 14.3674 4 14.5 4C14.6326 4 14.7598 4.05268 14.8536 4.14645C14.9473 4.24021 15 4.36739 15 4.5V5H15.5C15.6326 5 15.7598 5.05268 15.8536 5.14645C15.9473 5.24021 16 5.36739 16 5.5ZM9.5 2.5C9.5 2.36739 9.55268 2.24021 9.64645 2.14645C9.74022 2.05268 9.8674 2 10 2H11V1C11 0.867392 11.0527 0.740215 11.1465 0.646447C11.2402 0.552678 11.3674 0.5 11.5 0.5C11.6326 0.5 11.7598 0.552678 11.8536 0.646447C11.9473 0.740215 12 0.867392 12 1V2H13C13.1326 2 13.2598 2.05268 13.3536 2.14645C13.4473 2.24021 13.5 2.36739 13.5 2.5C13.5 2.63261 13.4473 2.75979 13.3536 2.85355C13.2598 2.94732 13.1326 3 13 3H12V4C12 4.13261 11.9473 4.25979 11.8536 4.35355C11.7598 4.44732 11.6326 4.5 11.5 4.5C11.3674 4.5 11.2402 4.44732 11.1465 4.35355C11.0527 4.25979 11 4.13261 11 4V3H10C9.8674 3 9.74022 2.94732 9.64645 2.85355C9.55268 2.75979 9.5 2.63261 9.5 2.5Z" fill="black"/>
</g>
<defs>
<clipPath id="clip0_84_742">
<rect width="16" height="16" fill="white"/>
</clipPath>
</defs>
</svg>
