<svg width="10" height="13" viewBox="0 0 10 13" fill="none" xmlns="http://www.w3.org/2000/svg">
<path d="M4.93731 12.4333C4.76941 12.4338 4.60373 12.3951 4.45351 12.3201C4.3033 12.2451 4.17275 12.1359 4.07231 12.0014L0.909181 7.78764C0.385815 7.04959 0.0754798 6.18183 0.0121156 5.27927C-0.0512487 4.37671 0.134798 3.4741 0.549909 2.67017C0.96502 1.86623 1.59321 1.19192 2.36577 0.720988C3.13834 0.250055 4.02552 0.000633183 4.93031 1.20396e-06C5.83509 -0.000630775 6.72262 0.247551 7.49584 0.717404C8.26907 1.18726 8.8982 1.86069 9.31443 2.66404C9.73066 3.4674 9.91797 4.36975 9.85587 5.2724C9.79376 6.17505 9.48464 7.04324 8.96231 7.78202L5.80293 12.0001C5.70256 12.135 5.57196 12.2444 5.42162 12.3196C5.27129 12.3949 5.10541 12.4338 4.93731 12.4333ZM4.93231 0.641395C3.87584 0.637478 2.85579 1.02718 2.07106 1.73452C1.28368 2.43738 0.781858 3.40493 0.660879 4.45342C0.539899 5.50191 0.808192 6.55832 1.41481 7.42202L4.57168 11.6264C4.61418 11.6831 4.66929 11.7291 4.73264 11.7607C4.79599 11.7924 4.86585 11.8089 4.93668 11.8089C5.00772 11.8091 5.07783 11.7927 5.14141 11.761C5.205 11.7293 5.26031 11.6832 5.30293 11.6264L8.45543 7.41764C8.88556 6.80898 9.14995 6.09889 9.22262 5.35713C9.2953 4.61538 9.17376 3.86747 8.86994 3.1869C8.56613 2.50633 8.09049 1.9165 7.48976 1.47535C6.88903 1.03421 6.18387 0.756939 5.44356 0.67077C5.27386 0.651004 5.10315 0.641196 4.93231 0.641395Z" fill="black"/>
<path d="M4.9375 6.53766C4.62847 6.53766 4.32637 6.44602 4.06942 6.27433C3.81247 6.10264 3.6122 5.85861 3.49394 5.5731C3.37568 5.28759 3.34473 4.97343 3.40502 4.67033C3.46531 4.36724 3.61413 4.08882 3.83265 3.87031C4.05117 3.65179 4.32958 3.50297 4.63267 3.44268C4.93577 3.38239 5.24993 3.41334 5.53544 3.5316C5.82095 3.64986 6.06498 3.85013 6.23667 4.10708C6.40836 4.36403 6.5 4.66613 6.5 4.97516C6.5 5.38956 6.33538 5.78699 6.04236 6.08001C5.74933 6.37304 5.3519 6.53766 4.9375 6.53766ZM4.9375 4.03766C4.75208 4.03766 4.57083 4.09264 4.41665 4.19566C4.26248 4.29867 4.14232 4.44509 4.07136 4.61639C4.00041 4.7877 3.98184 4.9762 4.01801 5.15806C4.05419 5.33991 4.14348 5.50696 4.27459 5.63807C4.4057 5.76918 4.57275 5.85847 4.7546 5.89465C4.93646 5.93082 5.12496 5.91225 5.29627 5.8413C5.46757 5.77034 5.61399 5.65018 5.717 5.49601C5.82002 5.34184 5.875 5.16058 5.875 4.97516C5.875 4.72652 5.77623 4.48806 5.60041 4.31225C5.4246 4.13643 5.18614 4.03766 4.9375 4.03766Z" fill="black"/>
</svg>
