<svg width="9" height="22" viewBox="0 0 9 22" fill="none" xmlns="http://www.w3.org/2000/svg">
<path d="M4.50195 4.4C5.74459 4.4 6.75195 3.41503 6.75195 2.2C6.75195 0.984973 5.74459 0 4.50195 0C3.25931 0 2.25195 0.984973 2.25195 2.2C2.25195 3.41503 3.25931 4.4 4.50195 4.4Z" fill="#9ECDE2"/>
<path d="M7.875 5.5H1.125C0.826631 5.5 0.540484 5.61589 0.329505 5.82218C0.118527 6.02847 0 6.30826 0 6.6V14.3H2.25V22H6.75V14.3H9V6.6C9 6.30826 8.88147 6.02847 8.6705 5.82218C8.45952 5.61589 8.17337 5.5 7.875 5.5Z" fill="#9ECDE2"/>
</svg>
