<svg width="17" height="16" viewBox="0 0 17 16" fill="none" xmlns="http://www.w3.org/2000/svg">
<g filter="url(#filter0_d_264_716)">
<path d="M8.05 5.59971H8.95V3.35983H8.05V5.59971ZM8.5 2.6132C8.6275 2.6132 8.73445 2.57736 8.82085 2.50568C8.90725 2.43401 8.9503 2.34541 8.95 2.23988C8.9497 2.13436 8.9065 2.04576 8.8204 1.97408C8.7343 1.90241 8.6275 1.86657 8.5 1.86657C8.3725 1.86657 8.2657 1.90241 8.1796 1.97408C8.0935 2.04576 8.0503 2.13436 8.05 2.23988C8.0497 2.34541 8.0929 2.43413 8.1796 2.50606C8.2663 2.57798 8.3731 2.6137 8.5 2.6132ZM8.5 7.46628C7.8775 7.46628 7.2925 7.36822 6.745 7.17211C6.1975 6.97599 5.72125 6.71007 5.31625 6.37434C4.91125 6.0386 4.5907 5.64351 4.3546 5.18906C4.1185 4.73462 4.0003 4.24931 4 3.73314C3.9997 3.21697 4.1179 2.73166 4.3546 2.27722C4.5913 1.82277 4.91185 1.42768 5.31625 1.09194C5.72065 0.75621 6.1969 0.490286 6.745 0.294171C7.2931 0.0980572 7.8781 0 8.5 0C9.1219 0 9.7069 0.0980572 10.255 0.294171C10.8031 0.490286 11.2793 0.75621 11.6837 1.09194C12.0881 1.42768 12.4088 1.82277 12.6458 2.27722C12.8828 2.73166 13.0009 3.21697 13 3.73314C12.9991 4.24931 12.8809 4.73462 12.6454 5.18906C12.4099 5.64351 12.0893 6.0386 11.6837 6.37434C11.2781 6.71007 10.8019 6.97612 10.255 7.17248C9.7081 7.36884 9.1231 7.46678 8.5 7.46628ZM8.5 6.71965C9.505 6.71965 10.3562 6.43033 11.0537 5.8517C11.7512 5.27306 12.1 4.56687 12.1 3.73314C12.1 2.8994 11.7512 2.19322 11.0537 1.61458C10.3562 1.03595 9.505 0.746628 8.5 0.746628C7.495 0.746628 6.64375 1.03595 5.94625 1.61458C5.24875 2.19322 4.9 2.8994 4.9 3.73314C4.9 4.56687 5.24875 5.27306 5.94625 5.8517C6.64375 6.43033 7.495 6.71965 8.5 6.71965Z" fill="white"/>
</g>
<defs>
<filter id="filter0_d_264_716" x="0" y="0" width="17" height="15.4663" filterUnits="userSpaceOnUse" color-interpolation-filters="sRGB">
<feFlood flood-opacity="0" result="BackgroundImageFix"/>
<feColorMatrix in="SourceAlpha" type="matrix" values="0 0 0 0 0 0 0 0 0 0 0 0 0 0 0 0 0 0 127 0" result="hardAlpha"/>
<feOffset dy="4"/>
<feGaussianBlur stdDeviation="2"/>
<feComposite in2="hardAlpha" operator="out"/>
<feColorMatrix type="matrix" values="0 0 0 0 0 0 0 0 0 0 0 0 0 0 0 0 0 0 0.25 0"/>
<feBlend mode="normal" in2="BackgroundImageFix" result="effect1_dropShadow_264_716"/>
<feBlend mode="normal" in="SourceGraphic" in2="effect1_dropShadow_264_716" result="shape"/>
</filter>
</defs>
</svg>
