<svg width="17" height="17" viewBox="0 0 17 17" fill="none" xmlns="http://www.w3.org/2000/svg">
<path d="M10.1147 7.13999C11.2197 7.13999 11.8997 5.52499 11.8997 4.50499C11.8997 3.65499 11.4747 2.63499 10.6247 2.63499C9.51969 2.63499 8.83969 4.24999 8.83969 5.26999C8.83969 6.11999 9.26469 7.13999 10.1147 7.13999ZM6.88469 7.13999C7.73469 7.13999 8.15969 6.11999 8.15969 5.26999C8.15969 4.16499 7.47969 2.54999 6.37469 2.54999C5.52469 2.54999 5.09969 3.56999 5.09969 4.41999C5.01469 5.52499 5.69469 7.13999 6.88469 7.13999ZM13.1747 6.28999C12.0697 6.28999 11.3047 7.81999 11.3047 8.92499C11.3047 9.68999 11.6447 10.455 12.4097 10.455C13.5147 10.455 14.2797 8.92499 14.2797 7.81999C14.2797 7.05499 13.8547 6.28999 13.1747 6.28999ZM5.77969 8.92499C5.77969 7.81999 4.92969 6.28999 3.90969 6.28999C3.14469 6.28999 2.80469 7.05499 2.80469 7.81999C2.80469 8.92499 3.65469 10.455 4.67469 10.455C5.43969 10.455 5.77969 9.68999 5.77969 8.92499ZM8.49969 8.75499C6.79969 8.75499 4.50469 11.475 4.50469 13.345C4.50469 14.195 5.09969 14.45 5.77969 14.45C6.79969 14.45 7.56469 13.77 8.49969 13.77C9.34969 13.77 10.1147 14.45 11.0497 14.45C11.7297 14.45 12.4947 14.28 12.4947 13.345C12.4947 11.475 10.1997 8.75499 8.49969 8.75499Z" fill="black"/>
</svg>
