<svg width="15" height="13" viewBox="0 0 15 13" fill="none" xmlns="http://www.w3.org/2000/svg">
<path d="M9.54738 0V12.4706L3.23043 9.43736H0V3.03323H3.23043L9.54738 0ZM2.72714 4.19762H1.36391V8.27297H2.72714V4.19762ZM4.09105 8.51458L8.18347 10.4795V1.9911L4.09105 3.95542V8.51458ZM13.6248 3.31385L14.036 3.77844C14.6619 4.48614 15.0004 5.34882 15 6.23559C14.9996 7.12236 14.6605 7.98483 14.034 8.69215L13.6228 9.15674L12.535 8.45462L12.9463 7.99003C13.394 7.48472 13.6363 6.8685 13.6366 6.23491C13.6368 5.60132 13.3949 4.98496 12.9476 4.4794L12.5364 4.01539L13.6248 3.31385ZM11.7201 4.54111L12.1313 5.0057C12.4443 5.35952 12.6136 5.79084 12.6135 6.23423C12.6134 6.67762 12.4438 7.10887 12.1306 7.46256L11.7187 7.92715L10.6317 7.22502L11.0429 6.76102C11.1773 6.60945 11.25 6.4246 11.2502 6.23452C11.2503 6.04444 11.1778 5.85952 11.0436 5.70783L10.6324 5.24324L11.7201 4.54111Z" fill="black"/>
</svg>
