<svg width="20" height="20" viewBox="0 0 20 20" fill="none" xmlns="http://www.w3.org/2000/svg">
<path d="M14.681 4.97331L15.8919 3.76248L17.0702 4.94081L15.8594 6.15165C16.9201 7.47925 17.4986 9.12774 17.5 10.8271C17.5014 12.5264 16.9257 14.1759 15.8671 15.5052C14.8086 16.8346 13.3299 17.7651 11.6734 18.1442C10.0169 18.5234 8.28077 18.3288 6.74934 17.5922C5.21791 16.8557 3.982 15.6209 3.24406 14.0902C2.50612 12.5594 2.30991 10.8234 2.68755 9.16659C3.06519 7.50974 3.99431 6.03026 5.3227 4.97048C6.6511 3.9107 8.30002 3.33346 9.99936 3.33331C11.7702 3.33331 13.3977 3.94665 14.681 4.97331ZM9.99936 16.6666C10.7654 16.6666 11.5239 16.5158 12.2317 16.2226C12.9394 15.9295 13.5825 15.4998 14.1241 14.9581C14.6658 14.4164 15.0955 13.7734 15.3887 13.0656C15.6818 12.3579 15.8327 11.5994 15.8327 10.8333C15.8327 10.0673 15.6818 9.30873 15.3887 8.60099C15.0955 7.89326 14.6658 7.2502 14.1241 6.70852C13.5825 6.16685 12.9394 5.73717 12.2317 5.44402C11.5239 5.15086 10.7654 4.99998 9.99936 4.99998C8.45226 4.99998 6.96853 5.61456 5.87457 6.70852C4.78061 7.80249 4.16603 9.28622 4.16603 10.8333C4.16603 12.3804 4.78061 13.8641 5.87457 14.9581C6.96853 16.0521 8.45226 16.6666 9.99936 16.6666ZM9.16603 6.66665H10.8327V11.6666H9.16603V6.66665ZM6.66603 0.833313H13.3327V2.49998H6.66603V0.833313Z" fill="black"/>
</svg>
