<svg width="34" height="34" viewBox="0 0 34 34" fill="none" xmlns="http://www.w3.org/2000/svg">
<path d="M3.86702 29.75H30.1179C31.2087 29.75 31.8887 28.5742 31.3504 27.625L18.2179 4.95833C18.0945 4.7422 17.9162 4.56255 17.7009 4.43759C17.4857 4.31263 17.2413 4.24681 16.9924 4.24681C16.7436 4.24681 16.4992 4.31263 16.2839 4.43759C16.0687 4.56255 15.8904 4.7422 15.767 4.95833L2.63452 27.625C2.09619 28.5742 2.77619 29.75 3.86702 29.75ZM18.4162 25.5H15.5829V22.6667H18.4162V25.5ZM16.9995 19.8333C16.2204 19.8333 15.5829 19.1958 15.5829 18.4167V15.5833C15.5829 14.8042 16.2204 14.1667 16.9995 14.1667C17.7787 14.1667 18.4162 14.8042 18.4162 15.5833V18.4167C18.4162 19.1958 17.7787 19.8333 16.9995 19.8333Z" fill="#BC0072"/>
</svg>
