<svg width="27" height="23" viewBox="0 0 27 23" fill="none" xmlns="http://www.w3.org/2000/svg">
<path d="M10.4627 16.125C15.1089 16.125 18.875 12.7398 18.875 8.5625C18.875 4.38525 15.1089 1 10.4627 1C5.818 1 2.05188 4.38525 2.05188 8.5625C2.05188 9.68725 2.32412 10.7542 2.81362 11.714L1 16.125L6.258 15.113C7.55755 15.7843 9.00009 16.1314 10.4627 16.125Z" stroke="black" stroke-width="2" stroke-linejoin="round"/>
<path d="M11.7305 20.4204C13.1168 21.2162 14.6887 21.6317 16.2872 21.6249C17.7503 21.6316 19.1934 21.2844 20.4933 20.6129L25.75 21.6249L23.935 17.2139C24.437 16.2393 24.6986 15.1587 24.6981 14.0624C24.6981 12.3505 24.0656 10.772 23 9.50426C21.9701 8.28051 20.536 7.34688 18.875 6.86426" stroke="black" stroke-width="2" stroke-linecap="round" stroke-linejoin="round"/>
<path d="M14.75 9.9375C13.9906 9.9375 13.375 9.32189 13.375 8.5625C13.375 7.80311 13.9906 7.1875 14.75 7.1875C15.5094 7.1875 16.125 7.80311 16.125 8.5625C16.125 9.32189 15.5094 9.9375 14.75 9.9375Z" fill="black"/>
<path d="M10.625 9.9375C9.86561 9.9375 9.25 9.32189 9.25 8.5625C9.25 7.80311 9.86561 7.1875 10.625 7.1875C11.3844 7.1875 12 7.80311 12 8.5625C12 9.32189 11.3844 9.9375 10.625 9.9375Z" fill="black"/>
<path d="M6.5 9.9375C5.74061 9.9375 5.125 9.32189 5.125 8.5625C5.125 7.80311 5.74061 7.1875 6.5 7.1875C7.25939 7.1875 7.875 7.80311 7.875 8.5625C7.875 9.32189 7.25939 9.9375 6.5 9.9375Z" fill="black"/>
</svg>
