<svg width="21" height="20" viewBox="0 0 21 20" fill="none" xmlns="http://www.w3.org/2000/svg">
<path d="M10.5 4.13628C11.3874 4.13632 12.234 4.47224 12.8545 5.06304C13.4743 5.65331 13.8184 6.44927 13.8184 7.273C13.8183 8.0966 13.4742 8.89179 12.8545 9.48198C12.2339 10.0729 11.3875 10.4087 10.5 10.4087C9.61231 10.4087 8.76515 10.073 8.14453 9.48198C7.52488 8.8918 7.18174 8.09656 7.18164 7.273C7.18164 6.44927 7.52474 5.65331 8.14453 5.06304C8.76514 4.472 9.61233 4.13628 10.5 4.13628ZM10.5 4.95464C9.86873 4.95464 9.25814 5.1927 8.80469 5.62456C8.35041 6.05721 8.09082 6.65009 8.09082 7.273C8.09092 7.89571 8.35058 8.4879 8.80469 8.92046C9.25814 9.35232 9.86873 9.59038 10.5 9.59038C11.1311 9.59033 11.7409 9.35217 12.1943 8.92046C12.6485 8.48789 12.9091 7.89578 12.9092 7.273C12.9092 6.65009 12.6486 6.05721 12.1943 5.62456C11.741 5.19292 11.1311 4.95468 10.5 4.95464Z" fill="black" stroke="#3771C8"/>
<path d="M10.5 0.5C16.046 0.5 20.5 4.77612 20.5 10C20.5 15.2239 16.046 19.5 10.5 19.5C4.95401 19.5 0.5 15.2239 0.5 10C0.5 4.77612 4.95401 0.5 10.5 0.5ZM10.5615 13.1367C9.41038 13.1359 8.27506 13.3997 7.25195 13.9072C6.22864 14.4148 5.34646 15.1514 4.68262 16.0566L4.39453 16.4492L4.7793 16.748C6.39829 18.0035 8.4199 18.6849 10.501 18.6816L10.5 18.6807C12.6176 18.6837 14.6722 17.9789 16.3037 16.6826L16.6846 16.3799L16.3916 15.9902C15.725 15.1039 14.8476 14.3842 13.834 13.8887C12.8203 13.3932 11.6986 13.1358 10.5615 13.1367ZM13.4023 1.77344C12.0378 1.33447 10.5838 1.2115 9.16016 1.41406C7.73636 1.61669 6.38152 2.1391 5.20898 2.94043C4.03636 3.74184 3.07867 4.79971 2.41699 6.02734C1.75523 7.25516 1.40936 8.61718 1.40918 10L1.41797 10.377C1.502 12.253 2.20952 13.9742 3.34375 15.3555L3.73535 15.832L4.12109 15.3506C4.87362 14.4099 5.84547 13.6449 6.96289 13.1182C8.08048 12.5914 9.31246 12.3176 10.5615 12.3184H10.5625C11.7955 12.317 13.0117 12.5839 14.1182 13.0977C15.2244 13.6114 16.1905 14.3578 16.9443 15.2783L17.3359 15.7568L17.7217 15.2744C18.5989 14.1786 19.1912 12.8976 19.4473 11.5371C19.7033 10.1763 19.6157 8.77639 19.1914 7.45508C18.7671 6.13395 18.0189 4.93077 17.0117 3.94336C16.0046 2.95601 14.7671 2.21252 13.4023 1.77344Z" fill="black" stroke="#3771C8"/>
</svg>
