<svg width="18" height="19" viewBox="0 0 18 19" fill="none" xmlns="http://www.w3.org/2000/svg">
<path fill-rule="evenodd" clip-rule="evenodd" d="M10.0151 0.00050663C10.472 0.000513679 10.9164 0.157783 11.2809 0.448463C11.6454 0.739142 11.9102 1.14737 12.0351 1.61124L12.0731 1.78118L13.5241 9.43904C13.5928 9.80209 13.7507 10.1397 13.9821 10.4179C14.2134 10.6962 14.51 10.9054 14.8421 11.0244L15.0001 11.073L16.6961 11.5205C17.0466 11.6131 17.3537 11.836 17.561 12.1484C17.7682 12.4608 17.8616 12.8417 17.8241 13.221L17.8031 13.3677L17.1091 17.0294C17.0574 17.3021 16.9552 17.5613 16.8084 17.7922C16.6615 18.0231 16.4728 18.221 16.2533 18.3747C16.0337 18.5284 15.7875 18.6348 15.5289 18.6878C15.2702 18.7407 15.0042 18.7392 14.7461 18.6834L14.6001 18.6454L11.5431 17.7228C10.4937 17.4067 9.57111 16.7368 8.91611 15.8155C8.31424 16.6624 7.485 17.2986 6.53611 17.6416L6.29011 17.7228L3.23311 18.6454C2.97972 18.7217 2.71454 18.7445 2.4528 18.7123C2.19106 18.6802 1.93792 18.5937 1.70793 18.458C1.47794 18.3222 1.27563 18.1398 1.11263 17.9213C0.949624 17.7027 0.829143 17.4524 0.758106 17.1845L0.723106 17.0294L0.0291062 13.3667C-0.041718 12.9927 0.0177099 12.6043 0.196467 12.2729C0.375224 11.9415 0.661297 11.6894 1.00211 11.5628L1.13611 11.5205L2.83211 11.073C3.17229 10.9832 3.48412 10.8006 3.73634 10.5434C3.98855 10.2863 4.17228 9.96367 4.26911 9.60793L4.30811 9.43904L5.75811 1.78118C5.82456 1.43106 5.97017 1.10307 6.18253 0.825115C6.3949 0.547162 6.66774 0.327477 6.97784 0.184756C7.28793 0.0420343 7.62611 -0.0194989 7.96358 0.00539256C8.30105 0.0302841 8.62783 0.140863 8.91611 0.32772C9.23611 0.120837 9.61211 0.00050663 10.0151 0.00050663ZM14.7221 13.1756L14.0671 16.2894L15.1481 16.6156L15.7481 13.4469L14.7221 13.1756ZM3.11011 13.1756L2.08411 13.4469L2.68411 16.6156L3.76511 16.2884L3.11011 13.1756ZM10.0151 2.11156C9.98893 2.11184 9.9639 2.12294 9.94539 2.14247C9.92688 2.16201 9.91637 2.18843 9.91611 2.21606V12.6489C9.916 13.3044 10.1086 13.9438 10.4674 14.4788C10.8262 15.0139 11.3334 15.4182 11.9191 15.6361L12.1401 15.7078L12.8741 12.2235C12.1993 11.6098 11.7379 10.7758 11.5631 9.85387L10.1131 2.19601C10.1085 2.17216 10.0962 2.15074 10.0784 2.13535C10.0605 2.11996 10.0382 2.11156 10.0151 2.11156ZM7.81711 2.11156C7.79423 2.1118 7.77211 2.12031 7.75446 2.13568C7.73681 2.15105 7.72468 2.17234 7.72011 2.19601L6.26911 9.85387C6.09453 10.7757 5.63352 11.6096 4.95911 12.2235L5.69211 15.7078L5.74011 15.6931C6.36689 15.5041 6.9183 15.1047 7.31091 14.5555C7.70353 14.0062 7.91597 13.337 7.91611 12.6489V2.21606C7.91584 2.18825 7.90519 2.16167 7.88647 2.14211C7.86774 2.12254 7.84245 2.11156 7.81611 2.11156H7.81711Z" fill="#FA6D8C"/>
</svg>
