<svg width="18" height="18" viewBox="0 0 18 18" fill="none" xmlns="http://www.w3.org/2000/svg">
<path fill-rule="evenodd" clip-rule="evenodd" d="M7.5 8.625C7.5 9.9375 7.24875 10.9455 6.888 11.583C6.54075 12.198 6.16275 12.375 5.8125 12.375C5.46225 12.375 5.085 12.1973 4.737 11.583C4.533 11.223 4.365 10.746 4.257 10.1617C4.46925 10.3785 4.74225 10.5 5.0625 10.5C5.8695 10.5 6.375 9.7275 6.375 8.625C6.375 7.5225 5.8695 6.75 5.0625 6.75C4.9122 6.74833 4.76315 6.7774 4.6245 6.83544C4.48585 6.89348 4.36054 6.97926 4.25625 7.0875C4.365 6.504 4.53375 6.02625 4.73625 5.667C5.085 5.052 5.463 4.875 5.8125 4.875C6.162 4.875 6.54 5.05275 6.888 5.667C7.24875 6.3045 7.5 7.3125 7.5 8.625ZM8.625 8.625C8.625 11.4915 7.54125 13.5 5.8125 13.5C4.08375 13.5 3 11.4915 3 8.625C3 5.7585 4.08375 3.75 5.8125 3.75C7.54125 3.75 8.625 5.7585 8.625 8.625ZM13.875 8.625C13.875 9.9375 13.6237 10.9455 13.263 11.583C12.9157 12.198 12.5378 12.375 12.1875 12.375C11.8372 12.375 11.46 12.1973 11.112 11.583C10.908 11.223 10.74 10.746 10.632 10.1617C10.8442 10.3785 11.1173 10.5 11.4375 10.5C12.2445 10.5 12.75 9.7275 12.75 8.625C12.75 7.5225 12.2445 6.75 11.4375 6.75C11.2872 6.74833 11.1382 6.7774 10.9995 6.83544C10.8609 6.89348 10.7355 6.97926 10.6313 7.0875C10.74 6.504 10.9087 6.02625 11.1112 5.667C11.46 5.052 11.838 4.875 12.1875 4.875C12.537 4.875 12.915 5.05275 13.263 5.667C13.6237 6.3045 13.875 7.31325 13.875 8.625ZM15 8.625C15 11.4915 13.9163 13.5 12.1875 13.5C10.4587 13.5 9.375 11.4915 9.375 8.625C9.375 5.7585 10.4587 3.75 12.1875 3.75C13.9163 3.75 15 5.7585 15 8.625Z" fill="black"/>
</svg>
