<svg width="16" height="16" viewBox="0 0 16 16" fill="none" xmlns="http://www.w3.org/2000/svg">
<path d="M0.5 7.5V11.25H11.25V7.5H0.5ZM10.25 10.25H1.5V8.5H10.25V10.25ZM12 7.5H13V11.25H12V7.5ZM13.75 7.5H14.75V11.25H13.75V7.5ZM12.0446 5.41563C11.9247 5.23477 11.867 5.01981 11.8801 4.80322C11.8931 4.58663 11.9763 4.38018 12.1171 4.21506C12.4081 3.87662 12.577 3.45024 12.5967 3.00433C12.6165 2.55842 12.4858 2.11881 12.2258 1.756L12.043 1.5H10.9L10.8431 1.54062L11.4121 2.33719C11.5418 2.51823 11.607 2.73758 11.5971 2.96008C11.5873 3.18258 11.503 3.39533 11.3578 3.56422C11.0758 3.89515 10.909 4.30888 10.8828 4.74294C10.8566 5.17699 10.9723 5.60778 11.2126 5.97025L11.3991 6.25H12.6009L12.0446 5.41563ZM14.2946 5.41563C14.1747 5.23477 14.117 5.01981 14.1301 4.80322C14.1431 4.58663 14.2263 4.38018 14.3671 4.21506C14.6581 3.87662 14.827 3.45024 14.8467 3.00433C14.8665 2.55842 14.7358 2.11881 14.4758 1.756L14.293 1.5H13.15L13.0931 1.54062L13.6621 2.33719C13.7918 2.51823 13.857 2.73758 13.8471 2.96008C13.8373 3.18258 13.753 3.39533 13.6078 3.56422C13.3258 3.89515 13.159 4.30888 13.1328 4.74294C13.1066 5.17699 13.2223 5.60778 13.4626 5.97025L13.6491 6.25H14.8509L14.2946 5.41563Z" fill="black"/>
</svg>
