<svg width="34" height="34" viewBox="0 0 34 34" fill="none" xmlns="http://www.w3.org/2000/svg">
<g clip-path="url(#clip0_89_196)">
<path d="M17 0C12.4923 0 8.16531 1.79217 4.98047 4.97914C1.79236 8.16739 0.000912285 12.4912 0 17C0 21.5069 1.79297 25.8339 4.98047 29.0209C8.16531 32.2078 12.4923 34 17 34C21.5077 34 25.8347 32.2078 29.0195 29.0209C32.207 25.8339 34 21.5069 34 17C34 12.4931 32.207 8.16611 29.0195 4.97914C25.8347 1.79217 21.5077 0 17 0Z" fill="url(#paint0_linear_89_196)"/>
<path d="M7.69519 16.8204C12.6518 14.6614 15.9561 13.238 17.6083 12.5502C22.3311 10.5865 23.3113 10.2454 23.9514 10.2339C24.0922 10.2316 24.4057 10.2664 24.6102 10.4318C24.7802 10.5712 24.828 10.7598 24.8519 10.8922C24.8732 11.0245 24.9024 11.326 24.8785 11.5613C24.6235 14.2495 23.5158 20.7727 22.9527 23.7835C22.7163 25.0575 22.2461 25.4846 21.7919 25.5263C20.8038 25.6171 20.0547 24.8739 19.0985 24.2473C17.603 23.2664 16.7583 22.656 15.3053 21.6989C13.6266 20.5928 14.7157 19.9848 15.6719 18.9914C15.9216 18.7313 20.2725 14.7749 20.3549 14.416C20.3655 14.3711 20.3761 14.2038 20.2752 14.1156C20.1769 14.0271 20.0308 14.0574 19.9246 14.0813C19.7732 14.1153 17.3852 15.6952 12.7527 18.8209C12.0753 19.2868 11.4618 19.5139 10.9093 19.5019C10.3036 19.4889 9.13488 19.1587 8.26629 18.8766C7.20379 18.5305 6.35644 18.3475 6.43082 17.7597C6.46801 17.4537 6.89035 17.1405 7.69519 16.8204Z" fill="white"/>
</g>
<defs>
<linearGradient id="paint0_linear_89_196" x1="1700" y1="0" x2="1700" y2="3400" gradientUnits="userSpaceOnUse">
<stop stop-color="#2AABEE"/>
<stop offset="1" stop-color="#229ED9"/>
</linearGradient>
<clipPath id="clip0_89_196">
<rect width="34" height="34" fill="white"/>
</clipPath>
</defs>
</svg>
