<svg width="24" height="24" viewBox="0 0 24 24" fill="none" xmlns="http://www.w3.org/2000/svg">
<path d="M17.5169 7.95699C17.8169 8.24299 17.8289 8.717 17.5429 9.017L10.8759 16.017C10.8059 16.0905 10.7216 16.149 10.6283 16.189C10.535 16.229 10.4345 16.2496 10.3329 16.2496C10.2314 16.2496 10.1309 16.229 10.0376 16.189C9.94423 16.149 9.85998 16.0905 9.78994 16.017L6.45694 12.517C6.3861 12.4463 6.33014 12.3621 6.29234 12.2694C6.25455 12.1767 6.23568 12.0774 6.23687 11.9773C6.23805 11.8773 6.25926 11.7784 6.29924 11.6867C6.33922 11.5949 6.39716 11.5121 6.46965 11.443C6.54214 11.374 6.62771 11.3202 6.72132 11.2848C6.81494 11.2493 6.91469 11.233 7.01472 11.2367C7.11474 11.2405 7.21301 11.2642 7.30372 11.3065C7.39444 11.3488 7.47578 11.4088 7.54294 11.483L10.3329 14.413L16.4569 7.98299C16.5941 7.83904 16.7828 7.75544 16.9816 7.75056C17.1803 7.74569 17.3729 7.81994 17.5169 7.95699Z" fill="#FF0909"/>
</svg>
