<svg width="38" height="38" viewBox="0 0 38 38" fill="none" xmlns="http://www.w3.org/2000/svg">
<path d="M3.16602 19C3.16602 13.0293 3.16602 10.0431 5.02168 8.18901C6.87735 6.33493 9.86193 6.33334 15.8327 6.33334H22.166C28.1368 6.33334 31.1229 6.33334 32.977 8.18901C34.8311 10.0447 34.8327 13.0293 34.8327 19V22.1667C34.8327 28.1374 34.8327 31.1236 32.977 32.9777C31.1213 34.8318 28.1368 34.8333 22.166 34.8333H15.8327C9.86193 34.8333 6.87577 34.8333 5.02168 32.9777C3.1676 31.122 3.16602 28.1374 3.16602 22.1667V19Z" stroke="black" stroke-width="1.875"/>
<path d="M11.082 6.33334V3.95834M26.9154 6.33334V3.95834M3.95703 14.25H34.0404" stroke="black" stroke-width="1.875" stroke-linecap="round"/>
<path d="M28.5 26.9167C28.5 27.3366 28.3332 27.7393 28.0363 28.0363C27.7393 28.3332 27.3366 28.5 26.9167 28.5C26.4967 28.5 26.094 28.3332 25.7971 28.0363C25.5001 27.7393 25.3333 27.3366 25.3333 26.9167C25.3333 26.4967 25.5001 26.094 25.7971 25.7971C26.094 25.5001 26.4967 25.3333 26.9167 25.3333C27.3366 25.3333 27.7393 25.5001 28.0363 25.7971C28.3332 26.094 28.5 26.4967 28.5 26.9167ZM28.5 20.5833C28.5 21.0033 28.3332 21.406 28.0363 21.7029C27.7393 21.9999 27.3366 22.1667 26.9167 22.1667C26.4967 22.1667 26.094 21.9999 25.7971 21.7029C25.5001 21.406 25.3333 21.0033 25.3333 20.5833C25.3333 20.1634 25.5001 19.7607 25.7971 19.4637C26.094 19.1668 26.4967 19 26.9167 19C27.3366 19 27.7393 19.1668 28.0363 19.4637C28.3332 19.7607 28.5 20.1634 28.5 20.5833ZM20.5833 26.9167C20.5833 27.3366 20.4165 27.7393 20.1196 28.0363C19.8227 28.3332 19.4199 28.5 19 28.5C18.5801 28.5 18.1773 28.3332 17.8804 28.0363C17.5835 27.7393 17.4167 27.3366 17.4167 26.9167C17.4167 26.4967 17.5835 26.094 17.8804 25.7971C18.1773 25.5001 18.5801 25.3333 19 25.3333C19.4199 25.3333 19.8227 25.5001 20.1196 25.7971C20.4165 26.094 20.5833 26.4967 20.5833 26.9167ZM20.5833 20.5833C20.5833 21.0033 20.4165 21.406 20.1196 21.7029C19.8227 21.9999 19.4199 22.1667 19 22.1667C18.5801 22.1667 18.1773 21.9999 17.8804 21.7029C17.5835 21.406 17.4167 21.0033 17.4167 20.5833C17.4167 20.1634 17.5835 19.7607 17.8804 19.4637C18.1773 19.1668 18.5801 19 19 19C19.4199 19 19.8227 19.1668 20.1196 19.4637C20.4165 19.7607 20.5833 20.1634 20.5833 20.5833ZM12.6667 26.9167C12.6667 27.3366 12.4999 27.7393 12.2029 28.0363C11.906 28.3332 11.5033 28.5 11.0833 28.5C10.6634 28.5 10.2607 28.3332 9.96375 28.0363C9.66682 27.7393 9.5 27.3366 9.5 26.9167C9.5 26.4967 9.66682 26.094 9.96375 25.7971C10.2607 25.5001 10.6634 25.3333 11.0833 25.3333C11.5033 25.3333 11.906 25.5001 12.2029 25.7971C12.4999 26.094 12.6667 26.4967 12.6667 26.9167ZM12.6667 20.5833C12.6667 21.0033 12.4999 21.406 12.2029 21.7029C11.906 21.9999 11.5033 22.1667 11.0833 22.1667C10.6634 22.1667 10.2607 21.9999 9.96375 21.7029C9.66682 21.406 9.5 21.0033 9.5 20.5833C9.5 20.1634 9.66682 19.7607 9.96375 19.4637C10.2607 19.1668 10.6634 19 11.0833 19C11.5033 19 11.906 19.1668 12.2029 19.4637C12.4999 19.7607 12.6667 20.1634 12.6667 20.5833Z" fill="black"/>
</svg>
