<svg width="15" height="15" viewBox="0 0 15 15" fill="none" xmlns="http://www.w3.org/2000/svg">
<path fill-rule="evenodd" clip-rule="evenodd" d="M13.6155 0.75C14.3805 0.75 15 1.37025 15 2.1345V3.75C15.0004 5.14621 14.5679 6.5082 13.7619 7.64832C12.956 8.78844 11.8164 9.6506 10.5 10.116V10.875C10.5 11.1734 10.3815 11.4595 10.1705 11.6705C9.95952 11.8815 9.67337 12 9.375 12H5.625C5.32663 12 5.04048 11.8815 4.82951 11.6705C4.61853 11.4595 4.5 11.1734 4.5 10.875V10.116C3.18364 9.6506 2.04399 8.78844 1.23806 7.64832C0.432129 6.5082 -0.000421422 5.14621 3.08092e-07 3.75V2.1345C3.08092e-07 1.3695 0.62025 0.75 1.3845 0.75H13.6155ZM13.5 3.75V2.25H1.5V3.75C1.5 5.14239 2.05312 6.47774 3.03769 7.46231C4.02226 8.44688 5.35761 9 6.75 9H8.25C9.64239 9 10.9777 8.44688 11.9623 7.46231C12.9469 6.47774 13.5 5.14239 13.5 3.75Z" fill="#BC0072"/>
</svg>
