<svg width="19" height="19" viewBox="0 0 19 19" fill="none" xmlns="http://www.w3.org/2000/svg">
<path d="M18.2766 18.3478C17.8224 18.7584 17.2064 18.9891 16.5641 18.9891C15.9218 18.9891 15.3057 18.7584 14.8515 18.3478L9.50101 12.8191L4.15047 18.346C3.92625 18.5521 3.65911 18.7159 3.36449 18.8282C3.06986 18.9404 2.75357 18.9988 2.43385 19C2.11414 19.0012 1.79733 18.9451 1.5017 18.835C1.20607 18.725 0.937471 18.5631 0.711397 18.3587C0.485323 18.1543 0.306247 17.9115 0.184498 17.6442C0.0627487 17.3769 0.000736395 17.0905 0.00203824 16.8015C0.00334009 16.5124 0.06793 16.2265 0.192082 15.9601C0.316235 15.6938 0.497493 15.4523 0.725401 15.2495L6.2919 9.50183L0.723383 3.75045C0.495475 3.54774 0.314217 3.30624 0.190064 3.03988C0.0659118 2.77351 0.00132193 2.48757 2.00801e-05 2.19852C-0.00128177 1.90948 0.0607306 1.62307 0.18248 1.3558C0.304228 1.08854 0.483304 0.845706 0.709379 0.641321C0.935453 0.436937 1.20405 0.275041 1.49968 0.164973C1.79531 0.0549041 2.11212 -0.0011588 2.43183 1.81536e-05C2.75155 0.0011951 3.06784 0.0595883 3.36247 0.17183C3.6571 0.284071 3.92423 0.447939 4.14845 0.653982L9.50101 6.18457L14.8515 0.653982C15.0758 0.447939 15.3429 0.284071 15.6375 0.17183C15.9322 0.0595883 16.2485 0.0011951 16.5682 1.81536e-05C16.8879 -0.0011588 17.2047 0.0549041 17.5003 0.164973C17.7959 0.275041 18.0645 0.436937 18.2906 0.641321C18.5167 0.845706 18.6958 1.08854 18.8175 1.3558C18.9393 1.62307 19.0013 1.90948 19 2.19852C18.9987 2.48757 18.9341 2.77351 18.8099 3.03988C18.6858 3.30624 18.5045 3.54774 18.2766 3.75045L12.7101 9.50183L18.2766 15.2495C18.5018 15.4529 18.6804 15.6944 18.8023 15.9602C18.9242 16.226 18.9869 16.5109 18.9869 16.7987C18.9869 17.0864 18.9242 17.3714 18.8023 17.6372C18.6804 17.903 18.5018 18.1445 18.2766 18.3478Z" fill="black"/>
</svg>
