<svg width="11" height="22" viewBox="0 0 11 22" fill="none" xmlns="http://www.w3.org/2000/svg">
<path d="M5.49851 4.4C6.72631 4.4 7.72163 3.41503 7.72163 2.2C7.72163 0.984973 6.72631 0 5.49851 0C4.27072 0 3.27539 0.984973 3.27539 2.2C3.27539 3.41503 4.27072 4.4 5.49851 4.4Z" fill="#F4B7D0"/>
<path d="M8.77688 6.2524C8.70319 6.03345 8.56178 5.84298 8.37267 5.70795C8.18356 5.57293 7.95632 5.50018 7.72312 5.5H3.27688C3.04368 5.50018 2.81644 5.57293 2.62733 5.70795C2.43822 5.84298 2.29681 6.03345 2.22312 6.2524L0 12.8524L1.97302 13.5047L1.05376 17.6H3.27688V22H7.72312V17.6H9.94624L9.02698 13.5036L11 12.8513L8.77688 6.2524Z" fill="#F4B7D0"/>
</svg>
