<svg width="38" height="39" viewBox="0 0 38 39" fill="none" xmlns="http://www.w3.org/2000/svg">
<path d="M12.7312 1.98123C16.8669 0.552348 21.3639 0.591648 25.4743 2.09259C27.7316 2.94305 29.7998 4.23388 31.5602 5.89097C30.962 6.53506 30.331 7.13702 29.7209 7.76306C28.5606 8.92886 27.4012 10.0906 26.2428 11.2484C25.088 10.137 23.6912 9.31249 22.1636 8.84057C20.2089 8.24656 18.1294 8.20589 16.1532 8.72302C14.177 9.24015 12.3805 10.2951 10.9608 11.7721C9.72159 13.0409 8.78311 14.5749 8.21541 16.2597L2.01587 11.429C4.23493 7.00026 8.07709 3.61262 12.7312 1.98123Z" fill="#E33629"/>
<path d="M0.370828 16.2146C0.704046 14.5526 1.25726 12.943 2.01567 11.429L8.21521 16.2718C7.4042 18.6754 7.4042 21.2813 8.21521 23.6849C6.14969 25.2902 4.08318 26.9034 2.01567 28.5247C0.117076 24.7212 -0.461961 20.3877 0.370828 16.2146Z" fill="#F8BD00"/>
<path d="M18.9159 16.4102H36.716C37.3249 19.772 37.1602 23.2295 36.2345 26.5172C35.3829 29.5404 33.7286 32.2729 31.4495 34.4209C29.4488 32.8498 27.4391 31.2907 25.4384 29.7196C26.4303 29.0462 27.2769 28.1782 27.9275 27.1677C28.5781 26.1571 29.0193 25.0247 29.2245 23.8384H18.9159C18.9129 21.3644 18.9159 18.8873 18.9159 16.4102Z" fill="#587DBD"/>
<path d="M2.01245 28.5247C4.07996 26.9195 6.14648 25.3062 8.212 23.6849C9.01111 26.0452 10.5309 28.091 12.5544 29.53C13.8164 30.4277 15.2505 31.0509 16.7652 31.3599C18.2576 31.6392 19.7885 31.6392 21.281 31.3599C22.7691 31.1064 24.1881 30.5426 25.4469 29.7045C27.4476 31.2756 29.4573 32.8347 31.458 34.4058C29.2686 36.4096 26.5996 37.8066 23.7124 38.4601C20.5256 39.214 17.2045 39.1779 14.0347 38.3547C11.5277 37.681 9.18597 36.4934 7.15631 34.8663C5.00803 33.1498 3.25342 30.9866 2.01245 28.5247Z" fill="#319F43"/>
</svg>
