<svg width="22" height="20" viewBox="0 0 22 20" fill="none" xmlns="http://www.w3.org/2000/svg">
<path d="M15.9502 1C18.7956 1.0001 20.9998 3.18868 21 5.99414C21 7.71682 20.2247 9.36502 18.6504 11.2734C17.0653 13.1949 14.779 15.2547 11.9268 17.8174L11.9248 17.8184L11 18.6523L10.0752 17.8184L10.0732 17.8174C7.22098 15.2547 4.93466 13.1949 3.34961 11.2734C1.77531 9.36502 1 7.71682 1 5.99414C1.00021 3.18869 3.20442 1.0001 6.0498 1C7.66491 1 9.22925 1.75023 10.2441 2.92188L11 3.79395L11.7559 2.92188C12.7707 1.75023 14.3351 1 15.9502 1Z" fill="white" stroke="#3771C8" stroke-width="2"/>
</svg>
