<svg width="21" height="20" viewBox="0 0 21 20" fill="none" xmlns="http://www.w3.org/2000/svg">
<mask id="path-1-inside-1_273_735" fill="white">
<path d="M15.4875 2.12484e-08C16.0861 -8.75273e-05 16.6625 0.270369 17.1 0.756711C17.5376 1.24305 17.8038 1.90901 17.8447 2.62L17.85 2.8125V16.875C17.8498 17.0312 17.8986 17.1818 17.987 17.2972C18.0754 17.4126 18.1969 17.4845 18.3276 17.4986C18.4582 17.5127 18.5886 17.4681 18.693 17.3735C18.7974 17.2789 18.8682 17.1412 18.8916 16.9875L18.9 16.875V3.7675C19.448 3.84045 19.9574 4.13933 20.3398 4.61236C20.7221 5.08538 20.9535 5.70276 20.9937 6.3575L21 6.5625V15.9375C21.0001 16.9752 20.6666 17.9735 20.0679 18.7278C19.4693 19.482 18.6509 19.935 17.7807 19.9938L17.5875 20H3.4125C2.54086 20.0001 1.70223 19.6031 1.06866 18.8904C0.435085 18.1778 0.0545986 17.2035 0.00525014 16.1675L1.78486e-08 15.9375V2.8125C-7.3523e-05 2.09984 0.22711 1.41372 0.635638 0.892808C1.04417 0.371893 1.60357 0.0550276 2.2008 0.00625016L2.3625 2.12484e-08H15.4875ZM7.6104 8.75H3.9354C3.72654 8.75 3.52624 8.84877 3.37855 9.02459C3.23087 9.2004 3.1479 9.43886 3.1479 9.6875V14.0625C3.1479 14.58 3.5007 15 3.9354 15H7.6104C7.81926 15 8.01956 14.9012 8.16725 14.7254C8.31493 14.5496 8.3979 14.3111 8.3979 14.0625V9.6875C8.3979 9.43886 8.31493 9.2004 8.16725 9.02459C8.01956 8.84877 7.81926 8.75 7.6104 8.75ZM13.9146 13.125H11.2917L11.1846 13.1337C10.9869 13.1661 10.807 13.2866 10.6811 13.4709C10.5551 13.6551 10.4927 13.8894 10.5063 14.1264C10.5199 14.3634 10.6085 14.5854 10.7543 14.7475C10.9001 14.9097 11.0922 14.9999 11.2917 15H13.9146L14.0217 14.9913C14.2194 14.9589 14.3993 14.8384 14.5252 14.6541C14.6512 14.4699 14.7136 14.2356 14.7 13.9986C14.6864 13.7616 14.5978 13.5396 14.452 13.3775C14.3062 13.2153 14.1141 13.1251 13.9146 13.125ZM6.8229 10.625V13.125H4.7229V10.625H6.8229ZM13.9125 8.75L11.2896 8.75625L11.1825 8.76375C10.9829 8.79382 10.8006 8.91368 10.6729 9.09874C10.5452 9.2838 10.4818 9.52002 10.4958 9.75893C10.5098 9.99785 10.6 10.2213 10.748 10.3835C10.896 10.5458 11.0905 10.6344 11.2917 10.6313L13.9156 10.625L14.0217 10.6163C14.2195 10.5839 14.3995 10.4633 14.5254 10.2789C14.6513 10.0945 14.7137 9.86005 14.7 9.62298C14.6863 9.3859 14.5974 9.16389 14.4514 9.00183C14.3054 8.83977 14.1132 8.74975 13.9135 8.75M13.9146 4.38H3.9354L3.8283 4.38875C3.63064 4.42113 3.45067 4.54162 3.32475 4.72588C3.19884 4.91013 3.13637 5.14442 3.14997 5.3814C3.16357 5.61838 3.25223 5.84037 3.39802 6.00253C3.54381 6.1647 3.73588 6.25493 3.9354 6.255H13.9146L14.0217 6.2475C14.2211 6.2174 14.4032 6.0977 14.5308 5.91293C14.6585 5.72815 14.722 5.49227 14.7083 5.25359C14.6946 5.01492 14.6048 4.7915 14.4572 4.62909C14.3097 4.46668 14.1155 4.37757 13.9146 4.38Z"/>
</mask>
<path d="M15.4875 2.12484e-08C16.0861 -8.75273e-05 16.6625 0.270369 17.1 0.756711C17.5376 1.24305 17.8038 1.90901 17.8447 2.62L17.85 2.8125V16.875C17.8498 17.0312 17.8986 17.1818 17.987 17.2972C18.0754 17.4126 18.1969 17.4845 18.3276 17.4986C18.4582 17.5127 18.5886 17.4681 18.693 17.3735C18.7974 17.2789 18.8682 17.1412 18.8916 16.9875L18.9 16.875V3.7675C19.448 3.84045 19.9574 4.13933 20.3398 4.61236C20.7221 5.08538 20.9535 5.70276 20.9937 6.3575L21 6.5625V15.9375C21.0001 16.9752 20.6666 17.9735 20.0679 18.7278C19.4693 19.482 18.6509 19.935 17.7807 19.9938L17.5875 20H3.4125C2.54086 20.0001 1.70223 19.6031 1.06866 18.8904C0.435085 18.1778 0.0545986 17.2035 0.00525014 16.1675L1.78486e-08 15.9375V2.8125C-7.3523e-05 2.09984 0.22711 1.41372 0.635638 0.892808C1.04417 0.371893 1.60357 0.0550276 2.2008 0.00625016L2.3625 2.12484e-08H15.4875ZM7.6104 8.75H3.9354C3.72654 8.75 3.52624 8.84877 3.37855 9.02459C3.23087 9.2004 3.1479 9.43886 3.1479 9.6875V14.0625C3.1479 14.58 3.5007 15 3.9354 15H7.6104C7.81926 15 8.01956 14.9012 8.16725 14.7254C8.31493 14.5496 8.3979 14.3111 8.3979 14.0625V9.6875C8.3979 9.43886 8.31493 9.2004 8.16725 9.02459C8.01956 8.84877 7.81926 8.75 7.6104 8.75ZM13.9146 13.125H11.2917L11.1846 13.1337C10.9869 13.1661 10.807 13.2866 10.6811 13.4709C10.5551 13.6551 10.4927 13.8894 10.5063 14.1264C10.5199 14.3634 10.6085 14.5854 10.7543 14.7475C10.9001 14.9097 11.0922 14.9999 11.2917 15H13.9146L14.0217 14.9913C14.2194 14.9589 14.3993 14.8384 14.5252 14.6541C14.6512 14.4699 14.7136 14.2356 14.7 13.9986C14.6864 13.7616 14.5978 13.5396 14.452 13.3775C14.3062 13.2153 14.1141 13.1251 13.9146 13.125ZM6.8229 10.625V13.125H4.7229V10.625H6.8229ZM13.9125 8.75L11.2896 8.75625L11.1825 8.76375C10.9829 8.79382 10.8006 8.91368 10.6729 9.09874C10.5452 9.2838 10.4818 9.52002 10.4958 9.75893C10.5098 9.99785 10.6 10.2213 10.748 10.3835C10.896 10.5458 11.0905 10.6344 11.2917 10.6313L13.9156 10.625L14.0217 10.6163C14.2195 10.5839 14.3995 10.4633 14.5254 10.2789C14.6513 10.0945 14.7137 9.86005 14.7 9.62298C14.6863 9.3859 14.5974 9.16389 14.4514 9.00183C14.3054 8.83977 14.1132 8.74975 13.9135 8.75M13.9146 4.38H3.9354L3.8283 4.38875C3.63064 4.42113 3.45067 4.54162 3.32475 4.72588C3.19884 4.91013 3.13637 5.14442 3.14997 5.3814C3.16357 5.61838 3.25223 5.84037 3.39802 6.00253C3.54381 6.1647 3.73588 6.25493 3.9354 6.255H13.9146L14.0217 6.2475C14.2211 6.2174 14.4032 6.0977 14.5308 5.91293C14.6585 5.72815 14.722 5.49227 14.7083 5.25359C14.6946 5.01492 14.6048 4.7915 14.4572 4.62909C14.3097 4.46668 14.1155 4.37757 13.9146 4.38Z" fill="white"/>
<path d="M15.4875 2.12484e-08V1H15.4876L15.4875 2.12484e-08ZM17.8447 2.62L18.8444 2.59274L18.844 2.5776L18.8431 2.56247L17.8447 2.62ZM17.85 2.8125H18.85V2.79887L18.8496 2.78524L17.85 2.8125ZM17.85 16.875L18.85 16.8765V16.875H17.85ZM18.8916 16.9875L19.8802 17.1379L19.886 17.1001L19.8888 17.062L18.8916 16.9875ZM18.9 16.875L19.8972 16.9495L19.9 16.9123V16.875H18.9ZM18.9 3.7675L19.0319 2.77624L17.9 2.62558V3.7675H18.9ZM20.9937 6.3575L21.9932 6.32677L21.9928 6.31148L21.9918 6.2962L20.9937 6.3575ZM21 6.5625H22V6.54713L21.9995 6.53177L21 6.5625ZM21 15.9375H20V15.9376L21 15.9375ZM17.7807 19.9938L17.813 20.9932L17.8306 20.9927L17.8481 20.9915L17.7807 19.9938ZM17.5875 20V21H17.6037L17.6198 20.9995L17.5875 20ZM3.4125 20V19H3.41242L3.4125 20ZM0.00525014 16.1675L-0.994489 16.1903L-0.994207 16.2027L-0.993617 16.2151L0.00525014 16.1675ZM1.78486e-08 15.9375H-1V15.9489L-0.99974 15.9603L1.78486e-08 15.9375ZM1.78486e-08 2.8125H1V2.8124L1.78486e-08 2.8125ZM2.2008 0.00625016L2.16218 -0.993004L2.14076 -0.992176L2.1194 -0.990431L2.2008 0.00625016ZM2.3625 2.12484e-08V-1H2.34318L2.32388 -0.999254L2.3625 2.12484e-08ZM3.1479 9.6875H2.1479H3.1479ZM13.9146 13.125L13.915 12.125H13.9146V13.125ZM11.2917 13.125V12.125H11.2509L11.2103 12.1283L11.2917 13.125ZM11.1846 13.1337L11.1032 12.1371L11.0629 12.1404L11.023 12.1469L11.1846 13.1337ZM11.2917 15L11.2913 16H11.2917V15ZM13.9146 15V16H13.9554L13.996 15.9967L13.9146 15ZM14.0217 14.9913L14.1031 15.9879L14.1434 15.9846L14.1833 15.9781L14.0217 14.9913ZM6.8229 10.625H7.8229V9.625H6.8229V10.625ZM6.8229 13.125V14.125H7.8229V13.125H6.8229ZM4.7229 13.125H3.7229V14.125H4.7229V13.125ZM4.7229 10.625V9.625H3.7229V10.625H4.7229ZM11.2896 8.75625L11.2872 7.75625L11.2534 7.75633L11.2197 7.75869L11.2896 8.75625ZM11.1825 8.76375L11.1126 7.76619L11.0729 7.76898L11.0335 7.77491L11.1825 8.76375ZM11.2917 10.6313L11.2893 9.63117L11.2761 9.63137L11.2917 10.6313ZM13.9156 10.625L13.918 11.625L13.958 11.6249L13.9979 11.6216L13.9156 10.625ZM14.0217 10.6163L14.1039 11.6129L14.1438 11.6096L14.1833 11.6031L14.0217 10.6163ZM13.9146 4.38V5.38007L13.9267 5.37993L13.9146 4.38ZM3.9354 4.38V3.38H3.89462L3.85397 3.38332L3.9354 4.38ZM3.8283 4.38875L3.74687 3.39207L3.70657 3.39536L3.66666 3.4019L3.8283 4.38875ZM3.9354 6.255L3.93504 7.255H3.9354V6.255ZM13.9146 6.255V7.255H13.9496L13.9844 7.25256L13.9146 6.255ZM14.0217 6.2475L14.0915 7.24506L14.1315 7.24226L14.171 7.23629L14.0217 6.2475ZM15.4875 2.12484e-08L15.4876 1C15.7745 0.999958 16.089 1.12812 16.3566 1.42556L17.1 0.756711L17.8434 0.0878642C17.2359 -0.587381 16.3978 -1.00013 15.4874 -1L15.4875 2.12484e-08ZM17.1 0.756711L16.3566 1.42556C16.6285 1.7277 16.8173 2.17192 16.8464 2.67753L17.8447 2.62L18.8431 2.56247C18.7903 1.64611 18.4467 0.758405 17.8434 0.0878642L17.1 0.756711ZM17.8447 2.62L16.8451 2.64726L16.8504 2.83976L17.85 2.8125L18.8496 2.78524L18.8444 2.59274L17.8447 2.62ZM17.85 2.8125H16.85V16.875H17.85H18.85V2.8125H17.85ZM17.85 16.875L16.85 16.8735C16.8494 17.2325 16.9605 17.6015 17.1931 17.9052L17.987 17.2972L18.781 16.6892C18.8368 16.7621 18.8501 16.8298 18.85 16.8765L17.85 16.875ZM17.987 17.2972L17.1931 17.9052C17.4283 18.2124 17.7871 18.446 18.2202 18.4928L18.3276 17.4986L18.4349 16.5044C18.6067 16.5229 18.7225 16.6129 18.781 16.6892L17.987 17.2972ZM18.3276 17.4986L18.2202 18.4928C18.6569 18.54 19.0657 18.3853 19.3644 18.1145L18.693 17.3735L18.0215 16.6324C18.1115 16.5509 18.2595 16.4854 18.4349 16.5044L18.3276 17.4986ZM18.693 17.3735L19.3644 18.1145C19.6573 17.8492 19.8261 17.494 19.8802 17.1379L18.8916 16.9875L17.903 16.8371C17.9104 16.7884 17.9375 16.7086 18.0215 16.6324L18.693 17.3735ZM18.8916 16.9875L19.8888 17.062L19.8972 16.9495L18.9 16.875L17.9028 16.8005L17.8944 16.913L18.8916 16.9875ZM18.9 16.875H19.9V3.7675H18.9H17.9V16.875H18.9ZM18.9 3.7675L18.7681 4.75876C19.036 4.79442 19.323 4.94531 19.5621 5.24101L20.3398 4.61236L21.1174 3.9837C20.5917 3.33334 19.8601 2.88647 19.0319 2.77624L18.9 3.7675ZM20.3398 4.61236L19.5621 5.24101C19.8034 5.53954 19.9671 5.95432 19.9956 6.4188L20.9937 6.3575L21.9918 6.2962C21.9399 5.45119 21.6409 4.63122 21.1174 3.9837L20.3398 4.61236ZM20.9937 6.3575L19.9942 6.38823L20.0005 6.59323L21 6.5625L21.9995 6.53177L21.9932 6.32677L20.9937 6.3575ZM21 6.5625H20V15.9375H21H22V6.5625H21ZM21 15.9375L20 15.9376C20 16.7682 19.7317 17.5428 19.2847 18.1061L20.0679 18.7278L20.8512 19.3495C21.6014 18.4042 22.0001 17.1821 22 15.9374L21 15.9375ZM20.0679 18.7278L19.2847 18.1061C18.8408 18.6654 18.2717 18.9583 17.7133 18.996L17.7807 19.9938L17.8481 20.9915C19.0302 20.9117 20.0978 20.2987 20.8512 19.3495L20.0679 18.7278ZM17.7807 19.9938L17.7484 18.9943L17.5552 19.0005L17.5875 20L17.6198 20.9995L17.813 20.9932L17.7807 19.9938ZM17.5875 20V19H3.4125V20V21H17.5875V20ZM3.4125 20L3.41242 19C2.8552 19 2.27981 18.7477 1.81601 18.226L1.06866 18.8904L0.321305 19.5548C1.12465 20.4584 2.22651 21.0001 3.41258 21L3.4125 20ZM1.06866 18.8904L1.81601 18.226C1.34796 17.6995 1.04361 16.949 1.00412 16.1199L0.00525014 16.1675L-0.993617 16.2151C-0.934412 17.458 -0.477788 18.656 0.321305 19.5548L1.06866 18.8904ZM0.00525014 16.1675L1.00499 16.1447L0.99974 15.9147L1.78486e-08 15.9375L-0.99974 15.9603L-0.994489 16.1903L0.00525014 16.1675ZM1.78486e-08 15.9375H1V2.8125H1.78486e-08H-1V15.9375H1.78486e-08ZM1.78486e-08 2.8125L1 2.8124C0.999948 2.30524 1.16297 1.84087 1.42252 1.50992L0.635638 0.892808L-0.15124 0.2757C-0.708745 0.986576 -1.00009 1.89444 -1 2.8126L1.78486e-08 2.8125ZM0.635638 0.892808L1.42252 1.50992C1.67908 1.18277 1.99352 1.02651 2.2822 1.00293L2.2008 0.00625016L2.1194 -0.990431C1.21362 -0.916454 0.409253 -0.438988 -0.15124 0.2757L0.635638 0.892808ZM2.2008 0.00625016L2.23942 1.0055L2.40112 0.999254L2.3625 2.12484e-08L2.32388 -0.999254L2.16218 -0.993004L2.2008 0.00625016ZM2.3625 2.12484e-08V1H15.4875V2.12484e-08V-1H2.3625V2.12484e-08ZM7.6104 8.75V7.75H3.9354V8.75V9.75H7.6104V8.75ZM3.9354 8.75V7.75C3.39946 7.75 2.92918 8.00481 2.61285 8.3814L3.37855 9.02459L4.14426 9.66778C4.1233 9.69273 4.05362 9.75 3.9354 9.75V8.75ZM3.37855 9.02459L2.61285 8.3814C2.30087 8.7528 2.1479 9.22455 2.1479 9.6875H3.1479H4.1479C4.1479 9.68087 4.14846 9.67473 4.14937 9.66934C4.15027 9.66393 4.15143 9.65989 4.15231 9.65735C4.1532 9.6548 4.15357 9.65445 4.15267 9.65606C4.15176 9.65769 4.14924 9.66185 4.14426 9.66778L3.37855 9.02459ZM3.1479 9.6875H2.1479V14.0625H3.1479H4.1479V9.6875H3.1479ZM3.1479 14.0625H2.1479C2.1479 14.9618 2.79215 16 3.9354 16V15V14C4.05701 14 4.12679 14.0612 4.14434 14.0821C4.16016 14.101 4.1479 14.0971 4.1479 14.0625H3.1479ZM3.9354 15V16H7.6104V15V14H3.9354V15ZM7.6104 15V16C8.14634 16 8.61662 15.7452 8.93295 15.3686L8.16725 14.7254L7.40154 14.0822C7.4225 14.0573 7.49218 14 7.6104 14V15ZM8.16725 14.7254L8.93295 15.3686C9.24493 14.9972 9.3979 14.5255 9.3979 14.0625H8.3979H7.3979C7.3979 14.0691 7.39734 14.0753 7.39643 14.0807C7.39552 14.0861 7.39437 14.0901 7.39349 14.0926C7.3926 14.0952 7.39223 14.0956 7.39313 14.0939C7.39404 14.0923 7.39656 14.0882 7.40154 14.0822L8.16725 14.7254ZM8.3979 14.0625H9.3979V9.6875H8.3979H7.3979V14.0625H8.3979ZM8.3979 9.6875H9.3979C9.3979 9.22455 9.24493 8.7528 8.93295 8.3814L8.16725 9.02459L7.40154 9.66778C7.39656 9.66185 7.39404 9.65769 7.39313 9.65606C7.39223 9.65445 7.3926 9.6548 7.39349 9.65735C7.39437 9.65989 7.39552 9.66393 7.39643 9.66934C7.39734 9.67473 7.3979 9.68087 7.3979 9.6875H8.3979ZM8.16725 9.02459L8.93295 8.3814C8.61662 8.00481 8.14634 7.75 7.6104 7.75V8.75V9.75C7.49218 9.75 7.4225 9.69273 7.40154 9.66778L8.16725 9.02459ZM13.9146 13.125V12.125H11.2917V13.125V14.125H13.9146V13.125ZM11.2917 13.125L11.2103 12.1283L11.1032 12.1371L11.1846 13.1337L11.266 14.1304L11.3731 14.1217L11.2917 13.125ZM11.1846 13.1337L11.023 12.1469C10.5233 12.2287 10.1161 12.5251 9.85542 12.9067L10.6811 13.4709L11.5067 14.0351C11.4978 14.0481 11.4506 14.1035 11.3462 14.1206L11.1846 13.1337ZM10.6811 13.4709L9.85542 12.9067C9.59664 13.2854 9.48252 13.7412 9.50791 14.1837L10.5063 14.1264L11.5046 14.0691C11.5039 14.0562 11.5054 14.0447 11.5076 14.0365C11.5098 14.0282 11.5113 14.0283 11.5067 14.0351L10.6811 13.4709ZM10.5063 14.1264L9.50791 14.1837C9.5333 14.626 9.69926 15.0697 10.0107 15.4161L10.7543 14.7475L11.498 14.079C11.509 14.0913 11.5108 14.0977 11.5094 14.0942C11.508 14.0907 11.5054 14.082 11.5046 14.0691L10.5063 14.1264ZM10.7543 14.7475L10.0107 15.4161C10.3263 15.7672 10.7801 15.9998 11.2913 16L11.2917 15L11.2921 14C11.4043 14 11.4739 14.0522 11.498 14.079L10.7543 14.7475ZM11.2917 15V16H13.9146V15V14H11.2917V15ZM13.9146 15L13.996 15.9967L14.1031 15.9879L14.0217 14.9913L13.9403 13.9946L13.8332 14.0033L13.9146 15ZM14.0217 14.9913L14.1833 15.9781C14.683 15.8963 15.0901 15.5999 15.3509 15.2183L14.5252 14.6541L13.6996 14.0899C13.7085 14.0769 13.7557 14.0215 13.8601 14.0044L14.0217 14.9913ZM14.5252 14.6541L15.3509 15.2183C15.6097 14.8396 15.7238 14.3838 15.6984 13.9413L14.7 13.9986L13.7017 14.0559C13.7024 14.0688 13.7009 14.0803 13.6987 14.0885C13.6965 14.0968 13.695 14.0967 13.6996 14.0899L14.5252 14.6541ZM14.7 13.9986L15.6984 13.9413C15.673 13.499 15.507 13.0553 15.1956 12.7089L14.452 13.3775L13.7083 14.046C13.6973 14.0337 13.6955 14.0273 13.6969 14.0308C13.6983 14.0343 13.7009 14.043 13.7017 14.0559L14.7 13.9986ZM14.452 13.3775L15.1956 12.7089C14.88 12.3578 14.4262 12.1252 13.915 12.125L13.9146 13.125L13.9142 14.125C13.802 14.125 13.7324 14.0728 13.7083 14.046L14.452 13.3775ZM6.8229 10.625H5.8229V13.125H6.8229H7.8229V10.625H6.8229ZM6.8229 13.125V12.125H4.7229V13.125V14.125H6.8229V13.125ZM4.7229 13.125H5.7229V10.625H4.7229H3.7229V13.125H4.7229ZM4.7229 10.625V11.625H6.8229V10.625V9.625H4.7229V10.625ZM13.9125 8.75L13.9101 7.75L11.2872 7.75625L11.2896 8.75625L11.292 9.75625L13.9149 9.75L13.9125 8.75ZM11.2896 8.75625L11.2197 7.75869L11.1126 7.76619L11.1825 8.76375L11.2524 9.76131L11.3595 9.75381L11.2896 8.75625ZM11.1825 8.76375L11.0335 7.77491C10.5281 7.85106 10.1146 8.14701 9.84981 8.53079L10.6729 9.09874L11.4959 9.66669C11.4865 9.68035 11.4377 9.73658 11.3315 9.75259L11.1825 8.76375ZM10.6729 9.09874L9.84981 8.53079C9.58709 8.91152 9.4714 9.37126 9.49749 9.81731L10.4958 9.75893L11.4941 9.70056C11.4933 9.68751 11.4949 9.67592 11.4971 9.66772C11.4993 9.65938 11.5008 9.65967 11.4959 9.66669L10.6729 9.09874ZM10.4958 9.75893L9.49749 9.81731C9.52355 10.2631 9.69251 10.7104 10.0093 11.0576L10.748 10.3835L11.4867 9.70953C11.4983 9.72222 11.5003 9.72902 11.4989 9.72558C11.4976 9.72229 11.4948 9.71361 11.4941 9.70056L10.4958 9.75893ZM10.748 10.3835L10.0093 11.0576C10.3306 11.4097 10.7914 11.6392 11.3073 11.6311L11.2917 10.6313L11.2761 9.63137C11.3896 9.6296 11.4614 9.68182 11.4867 9.70953L10.748 10.3835ZM11.2917 10.6313L11.2941 11.6312L13.918 11.625L13.9156 10.625L13.9133 9.625L11.2893 9.63125L11.2917 10.6313ZM13.9156 10.625L13.9979 11.6216L14.1039 11.6129L14.0217 10.6163L13.9395 9.61964L13.8334 9.62839L13.9156 10.625ZM14.0217 10.6163L14.1833 11.6031C14.6832 11.5212 15.0905 11.2246 15.3512 10.8428L14.5254 10.2789L13.6996 9.71494C13.7085 9.70194 13.7557 9.6465 13.8601 9.6294L14.0217 10.6163ZM14.5254 10.2789L15.3512 10.8428C15.61 10.4639 15.724 10.0078 15.6983 9.56512L14.7 9.62298L13.7017 9.68083C13.7024 9.69377 13.7009 9.70528 13.6987 9.71347C13.6965 9.72181 13.695 9.7217 13.6996 9.71494L14.5254 10.2789ZM14.7 9.62298L15.6983 9.56512C15.6727 9.12261 15.5063 8.67876 15.1944 8.3325L14.4514 9.00183L13.7084 9.67115C13.6973 9.65878 13.6955 9.65228 13.6969 9.65582C13.6982 9.65921 13.7009 9.66789 13.7017 9.68083L14.7 9.62298ZM14.4514 9.00183L15.1944 8.3325C14.8782 7.98152 14.4239 7.74937 13.9123 7.75L13.9135 8.75L13.9148 9.75C13.8025 9.75014 13.7326 9.69801 13.7084 9.67115L14.4514 9.00183ZM13.9146 4.38V3.38H3.9354V4.38V5.38H13.9146V4.38ZM3.9354 4.38L3.85397 3.38332L3.74687 3.39207L3.8283 4.38875L3.90973 5.38543L4.01683 5.37668L3.9354 4.38ZM3.8283 4.38875L3.66666 3.4019C3.167 3.48374 2.75985 3.78012 2.49912 4.16168L3.32475 4.72588L4.15039 5.29008C4.14148 5.30311 4.09428 5.35851 3.98994 5.3756L3.8283 4.38875ZM3.32475 4.72588L2.49912 4.16168C2.24034 4.54036 2.12622 4.99616 2.15162 5.43869L3.14997 5.3814L4.14833 5.32411C4.14759 5.31116 4.14911 5.29967 4.15129 5.2915C4.15351 5.28318 4.15501 5.28331 4.15039 5.29008L3.32475 4.72588ZM3.14997 5.3814L2.15162 5.43869C2.177 5.88102 2.34296 6.32474 2.65438 6.67112L3.39802 6.00253L4.14166 5.33395C4.15274 5.34628 4.15454 5.35273 4.15311 5.34916C4.15174 5.34574 4.14907 5.33704 4.14833 5.32411L3.14997 5.3814ZM3.39802 6.00253L2.65438 6.67112C2.97002 7.02219 3.42376 7.25481 3.93504 7.255L3.9354 6.255L3.93576 5.255C4.04799 5.25504 4.1176 5.3072 4.14166 5.33395L3.39802 6.00253ZM3.9354 6.255V7.255H13.9146V6.255V5.255H3.9354V6.255ZM13.9146 6.255L13.9844 7.25256L14.0915 7.24506L14.0217 6.2475L13.9519 5.24994L13.8448 5.25744L13.9146 6.255ZM14.0217 6.2475L14.171 7.23629C14.6758 7.16007 15.0889 6.86455 15.3536 6.48129L14.5308 5.91293L13.7081 5.34456C13.7175 5.33086 13.7663 5.27473 13.8724 5.25871L14.0217 6.2475ZM14.5308 5.91293L15.3536 6.48129C15.6163 6.10108 15.7322 5.64194 15.7066 5.19634L14.7083 5.25359L13.7099 5.31085C13.7107 5.32389 13.7091 5.33545 13.7069 5.34361C13.7047 5.35192 13.7032 5.3516 13.7081 5.34456L14.5308 5.91293ZM14.7083 5.25359L15.7066 5.19634C15.6811 4.75095 15.513 4.30404 15.1974 3.95665L14.4572 4.62909L13.7171 5.30153C13.7056 5.28893 13.7037 5.28223 13.7051 5.28574C13.7065 5.28909 13.7092 5.29781 13.7099 5.31085L14.7083 5.25359ZM14.4572 4.62909L15.1974 3.95665C14.8773 3.60435 14.4177 3.37384 13.9025 3.38007L13.9146 4.38L13.9267 5.37993C13.8134 5.3813 13.742 5.32901 13.7171 5.30153L14.4572 4.62909Z" fill="black" mask="url(#path-1-inside-1_273_735)"/>
</svg>
