<svg width="21" height="20" viewBox="0 0 21 20" fill="none" xmlns="http://www.w3.org/2000/svg">
<path d="M10.498 4.13623C11.3855 4.13628 12.232 4.47219 12.8525 5.06299C13.4723 5.65326 13.8164 6.44922 13.8164 7.27295C13.8163 8.09655 13.4722 8.89174 12.8525 9.48193C12.232 10.0728 11.3856 10.4086 10.498 10.4087C9.61035 10.4087 8.7632 10.073 8.14258 9.48193C7.52293 8.89175 7.17979 8.09651 7.17969 7.27295C7.17969 6.44922 7.52279 5.65326 8.14258 5.06299C8.76319 4.47196 9.61038 4.13623 10.498 4.13623ZM10.498 4.95459C9.86677 4.95459 9.25619 5.19265 8.80273 5.62451C8.34846 6.05716 8.08887 6.65005 8.08887 7.27295C8.08897 7.89566 8.34863 8.48785 8.80273 8.92041C9.25619 9.35227 9.86677 9.59033 10.498 9.59033C11.1292 9.59029 11.739 9.35212 12.1924 8.92041C12.6466 8.48784 12.9071 7.89573 12.9072 7.27295C12.9072 6.65004 12.6467 6.05716 12.1924 5.62451C11.739 5.19288 11.1291 4.95463 10.498 4.95459Z" fill="black" stroke="black"/>
<path d="M10.5 0.5C16.046 0.5 20.5 4.77612 20.5 10C20.5 15.2239 16.046 19.5 10.5 19.5C4.95401 19.5 0.5 15.2239 0.5 10C0.5 4.77612 4.95401 0.5 10.5 0.5ZM10.5615 13.1367C9.41038 13.1359 8.27506 13.3997 7.25195 13.9072C6.22864 14.4148 5.34646 15.1514 4.68262 16.0566L4.39453 16.4492L4.7793 16.748C6.39829 18.0035 8.4199 18.6849 10.501 18.6816L10.5 18.6807C12.6176 18.6837 14.6722 17.9789 16.3037 16.6826L16.6846 16.3799L16.3916 15.9902C15.725 15.1039 14.8476 14.3842 13.834 13.8887C12.8203 13.3932 11.6986 13.1358 10.5615 13.1367ZM13.4023 1.77344C12.0378 1.33447 10.5838 1.2115 9.16016 1.41406C7.73636 1.61669 6.38152 2.1391 5.20898 2.94043C4.03636 3.74184 3.07867 4.79971 2.41699 6.02734C1.75523 7.25516 1.40936 8.61718 1.40918 10L1.41797 10.377C1.502 12.253 2.20952 13.9742 3.34375 15.3555L3.73535 15.832L4.12109 15.3506C4.87362 14.4099 5.84547 13.6449 6.96289 13.1182C8.08048 12.5914 9.31246 12.3176 10.5615 12.3184H10.5625C11.7955 12.317 13.0117 12.5839 14.1182 13.0977C15.2244 13.6114 16.1905 14.3578 16.9443 15.2783L17.3359 15.7568L17.7217 15.2744C18.5989 14.1786 19.1912 12.8976 19.4473 11.5371C19.7033 10.1763 19.6157 8.77639 19.1914 7.45508C18.7671 6.13395 18.0189 4.93077 17.0117 3.94336C16.0046 2.95601 14.7671 2.21252 13.4023 1.77344Z" fill="black" stroke="black"/>
</svg>
