<svg width="14" height="23" viewBox="0 0 14 23" fill="none" xmlns="http://www.w3.org/2000/svg">
<path d="M6.26238 4.344C5.53704 4.344 4.77971 4.44 3.99038 4.632C3.20104 4.824 2.28371 5.13333 1.23838 5.56L0.054375 2.392C1.27038 1.83733 2.41171 1.45333 3.47838 1.24C4.56638 1.02667 5.57971 0.919998 6.51838 0.919998C8.16104 0.919998 9.47304 1.16533 10.4544 1.656C11.457 2.14666 12.1824 2.81867 12.6304 3.672C13.0784 4.504 13.3024 5.464 13.3024 6.552V7.128C13.3024 8.25867 13.1317 9.24 12.7904 10.072C12.449 10.8827 11.8517 11.672 10.9984 12.44L9.84638 13.496C9.14238 14.136 8.72638 14.6587 8.59838 15.064C8.47038 15.448 8.40638 15.8747 8.40638 16.344V16.632H4.56638V16.056C4.56638 15.2453 4.69438 14.4987 4.95038 13.816C5.20638 13.1333 5.81438 12.3547 6.77438 11.48L7.95837 10.392C8.57704 9.816 8.99304 9.31467 9.20638 8.888C9.41971 8.46133 9.52638 7.98133 9.52638 7.448V6.872C9.52638 6.12533 9.28104 5.51733 8.79038 5.048C8.29971 4.57867 7.45704 4.344 6.26238 4.344ZM8.43838 23H4.56638V19.192H8.43838V23Z" fill="black"/>
</svg>
