<svg width="43" height="43" viewBox="0 0 43 43" fill="none" xmlns="http://www.w3.org/2000/svg">
<path d="M33.7855 5.375H9.21454C8.19652 5.37595 7.22047 5.78078 6.50062 6.50062C5.78078 7.22047 5.37595 8.19652 5.375 9.21454V33.7855C5.375 35.905 7.09679 37.625 9.21454 37.625H33.7855C34.8035 37.6241 35.7795 37.2192 36.4994 36.4994C37.2192 35.7795 37.6241 34.8035 37.625 33.7855V9.21454C37.6241 8.19652 37.2192 7.22047 36.4994 6.50062C35.7795 5.78078 34.8035 5.37595 33.7855 5.375ZM30.7181 19.445C29.588 19.5547 28.4509 19.3231 27.4537 18.7803C26.6126 18.3268 25.8982 17.6702 25.3754 16.8703V25.7283C25.3754 27.0232 24.9914 28.2889 24.272 29.3655C23.5527 30.4421 22.5302 31.2812 21.334 31.7767C20.1377 32.2722 18.8214 32.4019 17.5514 32.1493C16.2815 31.8967 15.115 31.2732 14.1994 30.3576C13.2838 29.442 12.6603 28.2755 12.4077 27.0055C12.1551 25.7356 12.2847 24.4193 12.7802 23.223C13.2757 22.0267 14.1148 21.0043 15.1914 20.2849C16.2681 19.5655 17.5338 19.1816 18.8286 19.1816C18.9648 19.1816 19.0974 19.1941 19.2318 19.2013V22.4281C19.0974 22.412 18.9666 22.3869 18.8286 22.3869C17.9424 22.3869 17.0925 22.7389 16.4659 23.3656C15.8392 23.9922 15.4872 24.8421 15.4872 25.7283C15.4872 26.6145 15.8392 27.4645 16.4659 28.0911C17.0925 28.7177 17.9424 29.0698 18.8286 29.0698C20.674 29.0698 22.3045 27.6167 22.3045 25.7713L22.3367 10.7249H25.4237C25.565 12.0659 26.173 13.3145 27.1414 14.2528C28.1097 15.191 29.377 15.7592 30.7217 15.858V19.445" fill="black"/>
</svg>
