<svg width="23" height="23" viewBox="0 0 23 23" fill="none" xmlns="http://www.w3.org/2000/svg">
<path d="M4.6 10.3919H6.325V8.20359H4.6V10.3919ZM7.475 12.5802H9.2V6.01526H7.475V12.5802ZM10.6375 14.7686H12.3625V3.82693H10.6375V14.7686ZM13.8 12.5802H15.525V6.01526H13.8V12.5802ZM16.675 10.3919H18.4V8.20359H16.675V10.3919ZM0 22.4277V2.73276C0 2.13097 0.2254 1.61599 0.6762 1.1878C1.127 0.759619 1.66827 0.545163 2.3 0.544434H20.7C21.3325 0.544434 21.8741 0.75889 22.3249 1.1878C22.7757 1.61671 23.0008 2.1317 23 2.73276V15.8627C23 16.4645 22.775 16.9799 22.3249 17.4088C21.8749 17.8377 21.3333 18.0518 20.7 18.0511H4.6L0 22.4277ZM3.6225 15.8627H20.7V2.73276H2.3V17.0937L3.6225 15.8627Z" fill="#FA6D8C"/>
</svg>
