<svg xmlns="http://www.w3.org/2000/svg" version="1.0" preserveAspectRatio="xMidYMid meet" viewBox="124 71 203 138.5">
<metadata>
Created by potrace 1.10, written by Peter Selinger 2001-2011
</metadata>
<g transform="translate(0.000000,832.000000) scale(0.100000,-0.100000)" fill="#4660af" stroke="none">
<path d="M2137 7599 c-23 -13 -47 -62 -47 -95 0 -47 39 -112 103 -170 93 -83 105 -117 66 -180 -20 -34 -57 -49 -45 -19 7 19 -42 45 -85 45 -28 0 -30 2 -18 16 11 14 11 18 -4 29 -9 7 -17 19 -17 27 0 8 -10 24 -23 36 -32 30 -84 29 -131 -3 -20 -14 -50 -25 -67 -25 -17 0 -38 -4 -48 -9 -14 -8 -16 -5 -13 22 4 38 -34 267 -46 279 -5 5 -17 6 -26 2 -15 -6 -17 -15 -13 -45 5 -36 3 -39 -19 -39 -16 0 -28 -8 -36 -25 l-11 -25 -23 25 c-23 25 -44 31 -57 18 -7 -7 60 -52 78 -53 6 0 22 11 37 25 15 14 29 25 31 25 2 0 13 -46 23 -101 10 -56 24 -107 31 -114 17 -18 -4 -41 -45 -49 -39 -7 -40 -6 -145 201 -68 135 -98 176 -82 116 5 -23 4 -25 -10 -13 -37 30 -22 -5 43 -102 37 -56 79 -121 92 -143 l24 -40 -45 48 c-25 26 -50 47 -56 47 -20 0 -42 -35 -36 -58 8 -30 21 -28 15 3 -7 38 23 43 59 9 16 -15 29 -30 29 -33 0 -3 -15 -16 -32 -28 l-33 -23 -81 81 c-67 67 -80 84 -77 107 3 19 -5 38 -28 65 -38 46 -51 42 -15 -6 30 -39 34 -72 9 -82 -13 -5 -28 5 -55 37 -45 51 -51 39 -7 -15 22 -27 38 -37 59 -37 30 0 80 -48 80 -77 0 -9 17 -41 38 -72 45 -65 45 -92 1 -59 -42 32 -95 29 -125 -5 -13 -15 -27 -27 -31 -27 -4 0 -20 -10 -35 -23 -26 -21 -26 -24 -14 -59 12 -33 11 -38 -6 -53 -17 -14 -19 -24 -13 -78 8 -73 38 -167 68 -217 62 -103 189 -200 306 -234 68 -20 217 -21 290 -1 219 58 381 262 381 481 0 37 -4 46 -24 55 -18 9 -25 22 -30 56 -7 55 0 86 31 131 12 19 23 40 23 46 0 6 22 30 49 53 162 139 187 363 41 363 -33 0 -48 -6 -71 -29 l-29 -29 -29 29 c-23 22 -39 29 -68 29 -21 0 -46 -5 -56 -11z m114 -38 c19 -20 29 -40 29 -60 0 -17 5 -31 10 -31 6 0 10 14 10 31 0 41 47 89 87 89 48 0 73 -32 73 -93 0 -68 -37 -143 -103 -211 -46 -48 -50 -50 -61 -31 -6 11 -39 47 -74 80 -84 81 -102 110 -102 168 0 86 71 117 131 58z m-472 -165 c19 -117 20 -149 6 -135 -8 9 -34 144 -41 215 -11 114 11 63 35 -80z m289 -141 c8 -18 8 -26 -4 -35 -8 -7 -14 -21 -14 -32 0 -18 -5 -16 -39 15 -21 19 -48 38 -60 42 -12 3 -21 11 -21 16 0 5 1 9 3 9 1 0 20 6 41 14 47 16 78 6 94 -29z m-96 -44 c25 -16 53 -39 62 -52 15 -22 15 -24 -3 -30 -10 -4 -28 -19 -39 -34 -12 -15 -23 -21 -27 -15 -3 5 -16 10 -28 10 -25 1 -47 16 -63 45 -6 11 -30 29 -52 41 l-42 22 26 21 c40 32 108 28 166 -8z m-458 -10 c16 -16 25 -34 22 -40 -12 -18 -20 -13 -44 29 -27 47 -17 52 22 11z m153 -10 c15 -24 -9 -61 -39 -61 -20 0 -20 1 -4 19 15 16 15 20 1 31 -8 7 -12 16 -9 21 9 15 39 10 51 -10z m422 3 c-16 -20 2 -34 47 -34 18 0 38 -8 49 -20 17 -19 17 -20 -16 -34 -69 -28 -74 -28 -90 2 -8 15 -14 34 -13 42 1 8 2 25 3 38 1 13 7 22 17 22 14 0 14 -3 3 -16z m-499 -24 c0 -5 8 -7 18 -4 10 4 13 2 7 -3 -12 -10 -30 -38 -47 -73 -13 -25 -27 -40 -40 -40 -12 0 -9 49 3 73 23 44 59 73 59 47z m215 -2 c32 -14 32 -28 0 -28 -32 0 -58 -39 -49 -74 5 -22 3 -26 -15 -26 -12 0 -21 6 -21 14 0 8 -15 26 -32 41 l-33 25 33 30 c35 32 73 38 117 18z m55 -33 c0 -12 -35 -61 -54 -77 -26 -21 -36 -15 -36 22 0 31 15 46 42 42 9 -2 19 2 23 8 6 10 25 14 25 5z m-382 -31 c15 -10 22 -24 22 -44 l0 -31 -32 17 c-21 11 -43 14 -68 10 -43 -7 -58 11 -38 44 21 33 69 34 116 4z m602 -31 c8 -23 11 -45 8 -48 -10 -11 -88 39 -86 54 5 24 28 24 37 -1 9 -21 10 -21 10 -2 1 11 -5 26 -11 33 -11 10 -9 12 7 9 13 -2 25 -18 35 -45z m-402 3 c36 -34 37 -35 17 -50 -11 -8 -33 -17 -48 -20 -43 -9 -87 -45 -104 -84 -12 -28 -18 -33 -36 -28 -12 3 -28 6 -36 6 -10 0 -12 10 -8 43 7 49 52 97 92 97 18 0 25 5 25 19 0 61 42 68 98 17z m219 5 c3 -12 11 -17 23 -14 22 6 80 -17 80 -32 0 -6 -17 -15 -37 -22 -30 -9 -41 -8 -60 4 -31 20 -79 10 -105 -22 -18 -24 -21 -24 -48 -10 -16 8 -37 15 -47 15 -13 0 -14 3 -5 12 6 6 32 11 58 11 45 0 84 21 84 45 0 13 23 32 38 32 8 0 16 -8 19 -19z m330 -41 c1 -51 -1 -60 -16 -60 -10 0 -28 11 -40 24 -13 14 -33 26 -45 28 -36 5 -23 32 24 50 72 27 75 26 77 -42z m-880 11 c10 -15 9 -20 -2 -25 -8 -3 -15 -15 -15 -26 0 -15 -5 -20 -17 -18 -10 2 -18 12 -18 23 0 11 -4 26 -9 34 -7 11 -5 13 8 8 10 -4 19 -1 22 8 8 20 17 19 31 -4z m112 -21 c17 -9 17 -11 -2 -53 -20 -43 -22 -44 -44 -30 -21 14 -27 13 -61 -4 -38 -18 -72 -20 -72 -2 0 6 14 15 30 20 17 6 30 17 30 24 0 20 49 55 77 55 13 0 32 -4 42 -10z m445 -28 c5 -3 1 -9 -8 -14 -11 -6 -23 -4 -37 5 -32 23 6 30 45 9z m171 2 c22 -23 17 -24 -40 -10 -28 8 -43 15 -35 19 28 11 59 7 75 -9z m73 -4 c37 -23 42 -35 10 -27 -12 4 -28 1 -35 -5 -7 -6 -13 -9 -14 -7 -7 34 -8 59 -2 59 4 0 23 -9 41 -20z m-410 -26 c36 -16 36 -17 12 -23 -20 -6 -25 -13 -25 -40 l0 -33 -59 6 c-32 3 -72 6 -87 6 -36 0 -36 10 -2 50 43 52 95 63 161 34z m119 5 c9 -9 8 -18 -4 -35 -13 -20 -17 -21 -29 -10 -7 8 -19 16 -26 18 -10 4 -10 8 1 21 16 20 42 22 58 6z m215 -11 c15 -6 25 -14 23 -19 -3 -4 -21 -1 -41 7 -20 8 -33 10 -29 5 3 -6 12 -11 19 -11 8 0 19 -6 25 -14 10 -12 9 -13 -7 -9 -12 3 -25 -3 -33 -15 -17 -23 -139 -43 -139 -22 0 21 21 51 43 60 17 7 18 9 5 9 -24 1 -58 -34 -58 -59 0 -11 -7 -20 -15 -20 -8 0 -15 5 -15 11 0 23 42 79 63 84 12 2 31 6 42 8 26 6 82 -2 117 -15z m176 -14 c30 -8 28 -22 -5 -30 -17 -5 -28 -3 -31 4 -2 7 -8 12 -14 12 -6 0 -8 -6 -5 -14 4 -9 -6 -15 -31 -20 -71 -11 -82 -7 -63 22 14 23 102 38 149 26z m-864 -29 c-4 -8 -15 -15 -25 -15 -21 0 -26 16 -6 23 24 10 36 7 31 -8z m393 7 c10 8 19 6 38 -12 14 -13 25 -27 25 -32 0 -4 -22 -8 -50 -8 -50 0 -50 0 -50 32 0 25 3 29 12 20 8 -8 15 -9 25 0z m-347 -12 c8 -5 12 -12 8 -15 -10 -10 -49 5 -43 16 8 11 16 11 35 -1z m0 -36 c77 -12 174 -17 360 -17 243 0 326 7 463 39 32 8 33 1 13 -97 -20 -95 -59 -165 -131 -235 -98 -97 -215 -144 -355 -144 -256 0 -460 172 -497 419 l-10 63 26 -6 c14 -3 73 -13 131 -22z m640 16 c0 -5 -9 -10 -21 -10 -11 0 -17 5 -14 10 3 6 13 10 21 10 8 0 14 -4 14 -10z"/>
<path d="M2735 7503 c-3 -21 -15 -81 -25 -133 -11 -52 -17 -105 -14 -117 9 -32 -19 -30 -40 2 -9 14 -32 33 -51 42 -29 14 -38 14 -65 3 -18 -7 -44 -30 -59 -49 -15 -21 -35 -36 -46 -36 -14 0 -19 -6 -17 -17 2 -13 -4 -18 -23 -18 -29 0 -85 -48 -85 -73 0 -8 -9 -22 -19 -31 -19 -17 -18 -18 4 -42 58 -63 53 -238 -11 -352 -29 -53 -26 -59 54 -133 104 -97 216 -139 368 -139 233 0 424 130 503 343 29 79 39 188 18 205 -12 10 -13 20 -6 48 12 40 6 54 -22 54 -24 0 -24 8 0 34 25 27 71 115 71 135 0 31 -30 61 -61 61 -25 0 -33 -6 -45 -35 -13 -31 -17 -34 -39 -25 -32 12 -55 -10 -55 -53 l1 -32 20 28 c11 15 30 27 40 27 11 0 30 11 43 25 54 58 77 5 31 -70 -13 -22 -25 -47 -25 -56 0 -19 -26 -33 -35 -19 -4 6 -13 10 -21 10 -8 0 -25 12 -37 26 -16 19 -36 27 -69 31 l-45 5 49 67 c73 97 88 111 119 111 27 0 89 57 89 83 0 7 -17 -7 -38 -31 -26 -31 -42 -42 -54 -37 -29 11 -28 34 2 69 17 18 30 40 30 47 0 29 -69 -66 -70 -96 0 -22 -12 -41 -44 -72 -46 -45 -74 -57 -57 -25 13 25 -5 52 -34 52 -15 0 -42 -16 -67 -37 -40 -37 -41 -37 -23 -8 11 17 50 74 88 128 38 54 66 101 62 105 -3 4 -14 -2 -22 -13 -15 -19 -15 -19 -9 8 4 15 3 27 -1 27 -6 0 -129 -221 -177 -317 -1 -2 -89 20 -95 24 -2 1 4 9 13 18 9 9 16 24 16 34 0 9 6 41 14 71 7 30 17 83 20 118 7 61 7 62 -18 62 -21 0 -26 -6 -31 -37z m15 -125 c-13 -65 -27 -118 -32 -118 -12 0 -10 21 13 139 24 125 30 145 37 116 2 -10 -6 -72 -18 -137z m233 -103 c-2 -25 -56 -96 -72 -95 -4 0 -14 12 -24 26 -18 25 -18 26 0 46 24 27 75 59 88 54 6 -2 9 -16 8 -31z m-361 -16 c22 -21 29 -32 20 -36 -7 -3 -25 -15 -40 -28 -15 -12 -40 -25 -57 -29 -28 -6 -31 -4 -42 31 -12 36 -11 39 17 66 39 35 62 34 102 -4z m354 -76 c-24 -32 -46 -65 -49 -73 -3 -8 -6 2 -6 22 -1 33 4 41 45 73 26 19 48 35 50 35 2 0 -16 -26 -40 -57z m-213 5 c19 -14 27 -28 27 -49 l0 -29 -42 31 c-33 24 -50 29 -73 25 -16 -3 -39 -7 -50 -9 -59 -11 -84 -34 -54 -52 14 -10 -20 -34 -48 -35 -13 0 -23 5 -23 10 0 20 -15 9 -31 -23 -18 -36 -49 -49 -49 -21 0 28 81 98 130 113 25 8 56 24 70 37 42 38 90 38 143 2z m118 -3 c9 -17 20 -41 24 -55 7 -22 6 -23 -7 -12 -12 9 -27 10 -57 3 -22 -5 -41 -7 -41 -5 0 1 4 13 9 26 5 13 12 36 16 51 7 36 33 33 56 -8z m-386 -15 c5 -21 1 -29 -20 -40 -32 -17 -61 -56 -70 -93 -6 -22 -10 -25 -25 -17 -17 9 -30 4 -30 -12 0 -5 12 -13 27 -19 22 -8 24 -12 13 -19 -29 -19 -50 -11 -50 17 0 14 -7 34 -16 44 -14 16 -14 18 7 30 21 11 21 13 5 24 -15 12 -15 15 9 43 15 18 39 32 60 36 23 5 35 12 35 23 0 14 2 14 15 -3 14 -18 14 -18 15 6 0 29 16 17 25 -20z m242 -41 c38 -24 34 -37 -19 -64 -38 -18 -48 -12 -48 29 0 17 -5 37 -12 44 -21 21 41 14 79 -9z m-87 -8 c5 -11 10 -24 10 -30 0 -19 -46 -12 -66 10 -16 17 -16 22 -4 29 24 15 49 11 60 -9z m310 -26 c-6 -8 -9 -19 -5 -25 3 -5 -1 -10 -9 -10 -9 0 -16 5 -16 10 0 18 34 63 38 51 2 -6 -1 -18 -8 -26z m110 15 c11 -11 20 -27 20 -36 0 -13 -9 -14 -57 -8 -32 3 -59 7 -60 8 -2 2 3 14 10 29 15 33 58 36 87 7z m-171 -22 l21 -21 -30 -19 c-17 -10 -30 -22 -30 -28 0 -5 -14 -10 -30 -10 -17 0 -50 -10 -73 -21 -53 -28 -50 -28 -52 -3 -1 12 15 41 35 64 30 35 46 45 81 50 24 4 47 8 51 9 4 0 16 -9 27 -21z m-293 -23 c5 -12 10 -13 20 -4 11 9 18 8 29 -1 25 -21 17 -25 -36 -21 -40 2 -57 -1 -80 -18 -28 -21 -79 -29 -79 -13 0 23 29 45 58 44 17 0 36 6 43 14 15 18 38 18 45 -1z m534 -7 c0 -6 -7 -7 -16 -4 -9 3 -18 6 -20 6 -3 0 -3 4 1 10 7 11 35 2 35 -12z m-106 -7 c6 -10 -22 -37 -29 -29 -8 7 5 38 15 38 5 0 11 -4 14 -9z m157 -7 c11 -4 14 -14 11 -35 -4 -30 -22 -41 -22 -14 0 8 -9 23 -19 32 -20 17 -18 38 2 29 7 -4 19 -9 28 -12z m-186 -40 c29 -29 54 -88 43 -100 -3 -2 -18 -6 -34 -9 -26 -5 -31 -2 -52 35 -14 24 -37 48 -58 57 -38 18 -39 32 -5 49 32 16 69 5 106 -32z m137 19 c36 -33 22 -52 -45 -58 -37 -3 -44 0 -55 23 -8 18 -9 29 -1 39 16 18 79 16 101 -4z m-472 -3 c12 -7 12 -12 2 -22 -9 -9 -15 -9 -24 0 -7 7 -19 12 -27 11 -11 0 -9 -4 6 -11 31 -15 49 -62 35 -93 -15 -33 -52 -34 -52 -2 -1 27 -20 54 -56 78 l-27 17 29 16 c33 17 91 21 114 6z m-230 -19 c0 -12 -20 -25 -27 -18 -7 7 6 27 18 27 5 0 9 -4 9 -9z m480 -49 c22 -22 40 -43 40 -49 0 -10 -89 -23 -156 -23 -29 0 -34 3 -34 24 0 13 -7 29 -15 36 -8 7 -15 16 -15 20 0 13 51 28 97 29 36 1 48 -5 83 -37z m-361 2 c19 -16 31 -35 31 -50 0 -23 -3 -24 -60 -24 -54 0 -60 2 -60 20 0 12 -11 32 -24 45 -13 13 -21 26 -18 29 3 3 27 6 53 6 36 0 55 -6 78 -26z m642 5 c16 -8 18 -13 8 -25 -6 -8 -19 -14 -29 -14 -22 0 -35 31 -18 42 16 10 16 10 39 -3z m-763 -27 c25 -32 15 -43 -35 -40 -40 2 -49 7 -51 24 -2 14 5 24 20 31 26 12 48 7 66 -15z m700 6 c6 -6 12 -14 12 -19 0 -17 -23 -9 -47 17 l-23 25 22 -6 c13 -4 29 -12 36 -17z m-400 0 c7 -7 12 -22 12 -35 0 -20 -5 -23 -40 -23 -22 0 -40 3 -40 6 0 10 41 64 49 64 4 0 12 -5 19 -12z m360 -21 c2 -11 -3 -17 -15 -17 -12 0 -19 8 -20 21 -2 25 30 22 35 -4z m122 -14 c0 -5 -7 -38 -14 -74 -71 -332 -443 -499 -750 -336 -69 36 -177 134 -160 145 6 4 21 33 34 65 13 31 28 57 32 57 5 0 6 6 1 13 -4 6 -8 31 -8 54 l-1 42 216 -5 c225 -7 457 6 565 30 75 17 85 18 85 9z"/>
<path d="M2540 6925 c13 -14 26 -23 28 -20 7 7 -29 45 -41 45 -6 0 0 -11 13 -25z"/>
<path d="M2365 6921 c-6 -11 9 -23 19 -14 9 9 7 23 -3 23 -6 0 -12 -4 -16 -9z"/>
<path d="M2618 7506 c-8 -8 -26 -11 -46 -8 -26 3 -33 0 -41 -19 -12 -33 5 -73 45 -109 46 -40 66 -38 87 5 23 48 22 107 -1 128 -22 21 -27 21 -44 3z m42 -30 c9 -24 0 -76 -19 -106 -8 -12 -13 -12 -36 0 -31 17 -69 75 -61 95 6 18 37 20 53 4 8 -8 14 -5 22 10 15 28 29 27 41 -3z"/>
<path d="M1847 7472 c-10 -10 -17 -32 -17 -48 0 -35 30 -124 42 -124 21 0 88 42 107 66 26 34 27 68 1 94 -22 22 -29 24 -49 11 -10 -6 -22 -5 -35 5 -26 18 -30 18 -49 -4z m47 -18 c9 -8 16 -21 16 -27 0 -7 9 -1 19 13 16 20 21 22 35 11 24 -20 19 -54 -11 -83 -28 -26 -72 -52 -77 -46 -10 12 -26 76 -26 103 0 47 16 58 44 29z"/>
<path d="M2821 7448 c13 -18 25 -26 27 -19 4 13 -25 51 -40 51 -5 0 1 -14 13 -32z"/>
<path d="M1310 7441 c0 -7 -4 -9 -10 -6 -16 10 -12 -5 11 -36 11 -16 25 -29 31 -29 7 0 2 10 -10 23 -30 32 -28 46 3 17 14 -13 27 -21 30 -18 3 2 -9 17 -25 33 -17 16 -30 23 -30 16z"/>
<path d="M3159 7419 c-16 -23 -19 -33 -10 -42 8 -8 18 -5 38 15 24 24 25 28 10 42 -14 15 -18 13 -38 -15z m16 -19 c-10 -11 -20 -18 -23 -15 -3 3 3 14 13 25 10 11 20 18 23 15 3 -3 -3 -14 -13 -25z"/>
<path d="M1696 7331 c-10 -21 -16 -47 -14 -57 4 -14 10 -8 26 26 12 25 22 51 22 58 0 25 -17 11 -34 -27z"/>
<path d="M2790 7344 c1 -5 7 -20 15 -34 13 -24 14 -24 15 -4 0 12 -7 27 -15 34 -8 7 -15 9 -15 4z"/>
<path d="M1262 7280 c-13 -12 -22 -33 -22 -50 0 -30 34 -120 46 -120 6 0 4 15 -15 93 -7 29 -6 41 5 52 17 17 41 10 49 -14 3 -10 18 -24 33 -31 15 -7 35 -17 45 -22 25 -13 32 -4 12 16 -9 9 -27 16 -41 16 -17 0 -24 6 -24 18 0 19 -39 62 -56 62 -6 0 -20 -9 -32 -20z"/>
<path d="M1494 6347 c-50 -44 -22 -117 46 -117 60 0 83 81 34 119 -34 27 -47 26 -80 -2z m62 -15 c38 -26 4 -94 -36 -72 -37 20 -25 80 15 80 6 0 15 -4 21 -8z"/>
<path d="M1636 6303 c2 -54 6 -69 19 -71 14 -3 15 2 9 32 -3 20 -3 36 2 36 4 0 25 -17 46 -37 l38 -37 0 67 c0 55 -3 67 -16 67 -12 0 -15 -7 -12 -30 6 -39 -7 -38 -49 5 -19 19 -35 35 -37 35 -1 0 -1 -30 0 -67z"/>
<path d="M2010 6302 c0 -57 3 -72 15 -72 11 0 15 11 15 37 l0 37 38 -37 c21 -20 40 -37 42 -37 3 0 5 29 6 65 0 48 -3 65 -13 65 -8 0 -13 -13 -13 -37 l0 -37 -45 44 -45 44 0 -72z"/>
<path d="M2186 6349 c-49 -39 -22 -119 42 -119 36 0 48 10 54 43 5 25 3 27 -28 27 -19 0 -34 -4 -34 -10 0 -5 9 -10 20 -10 25 0 26 -16 1 -23 -27 -7 -51 11 -51 37 0 33 23 49 60 41 34 -7 41 8 11 25 -29 15 -45 12 -75 -11z"/>
<path d="M2566 6349 c-19 -15 -26 -30 -26 -54 0 -65 83 -87 123 -33 17 23 18 31 8 56 -11 26 -46 52 -70 52 -5 0 -20 -9 -35 -21z m68 -25 c22 -21 20 -40 -6 -58 -39 -27 -85 25 -51 59 19 19 38 19 57 -1z"/>
<path d="M2834 6353 c-18 -57 -22 -60 -34 -25 -7 17 -16 32 -20 32 -4 0 -13 -15 -19 -32 -9 -26 -14 -30 -21 -18 -5 8 -10 23 -10 33 0 10 -8 17 -18 17 -17 0 -17 -3 2 -65 12 -36 24 -65 28 -65 3 0 12 16 18 35 6 19 15 35 19 35 4 0 15 -17 25 -37 l18 -38 23 65 c12 36 20 68 18 73 -7 13 -24 7 -29 -10z"/>
<path d="M2905 6364 c-6 -2 -9 -32 -7 -69 l4 -65 44 0 c32 0 44 4 44 15 0 10 -11 15 -35 15 l-34 0 6 49 c5 47 -1 62 -22 55z"/>
<path d="M3032 6354 c-33 -23 -27 -44 18 -61 22 -9 40 -20 40 -25 0 -15 -28 -20 -49 -9 -14 8 -22 8 -27 0 -17 -28 64 -40 91 -13 24 24 14 48 -25 60 -49 16 -54 39 -6 31 41 -7 53 16 14 27 -31 8 -31 8 -56 -10z"/>
<path d="M1330 6295 l0 -65 44 0 c51 0 76 21 59 49 -6 10 -8 24 -3 31 17 28 -8 50 -55 50 l-45 0 0 -65z m75 30 c0 -5 -10 -11 -22 -13 -16 -2 -23 2 -23 13 0 11 7 15 23 13 12 -2 22 -7 22 -13z m3 -52 c2 -8 -6 -13 -22 -13 -17 0 -26 5 -26 16 0 19 41 16 48 -3z"/>
<path d="M1790 6295 l0 -65 40 0 c48 0 80 27 80 68 0 40 -28 62 -78 62 l-42 0 0 -65z m80 31 c20 -26 8 -61 -22 -64 -27 -3 -28 -1 -28 37 0 33 3 41 19 41 10 0 24 -7 31 -14z"/>
<path d="M1940 6295 c0 -51 3 -65 15 -65 12 0 15 14 15 65 0 51 -3 65 -15 65 -12 0 -15 -14 -15 -65z"/>
<path d="M2400 6296 l0 -66 36 0 c19 0 44 5 55 10 19 11 26 40 12 54 -4 4 -7 19 -8 34 0 25 -3 27 -47 30 l-48 3 0 -65z m75 29 c0 -5 -10 -11 -22 -13 -16 -2 -23 2 -23 13 0 11 7 15 23 13 12 -2 22 -7 22 -13z m5 -50 c0 -16 -45 -21 -54 -6 -8 12 4 21 31 21 14 0 23 -6 23 -15z"/>
</g>
</svg>