 <svg  version="1.0" xmlns="http://www.w3.org/2000/svg"  width="1000.000000pt" height="1000.000000pt" viewBox="0 0 1000.000000 1000.000000"  preserveAspectRatio="xMidYMid meet">  <g transform="translate(0.000000,1000.000000) scale(0.050000,-0.050000)" fill="#4660af" stroke="none"> <path d="M8958 19998 c-10 -52 -8 -98 4 -98 9 0 12 -18 8 -40 -4 -22 1 -40 11 -40 10 0 13 38 6 85 -10 74 -24 119 -29 93z"/> <path d="M4520 19525 c186 -186 140 -489 -153 -1000 -350 -613 -414 -1019 -219 -1400 102 -199 252 -361 177 -190 -128 290 13 723 374 1145 728 851 717 1269 -40 1479 -212 59 -228 55 -139 -34z m319 -251 c22 6 55 -8 79 -32 25 -25 42 -32 43 -17 0 14 10 9 21 -11 12 -20 16 -50 10 -66 -6 -17 -5 -26 3 -21 22 13 55 -31 57 -77 1 -22 6 -53 10 -70 4 -16 -3 -28 -17 -25 -14 3 -25 -4 -25 -15 0 -11 10 -20 22 -20 12 0 17 -11 12 -25 -5 -14 -21 -22 -36 -19 -22 5 -23 1 -4 -17 27 -28 -20 -137 -107 -251 -26 -34 -40 -69 -32 -78 8 -9 4 -10 -10 -2 -16 9 -25 2 -25 -18 0 -18 -9 -27 -20 -20 -11 7 -20 -2 -20 -20 0 -19 -9 -27 -23 -18 -14 9 -18 5 -9 -8 14 -24 -67 -118 -94 -109 -10 4 -12 -2 -6 -12 6 -9 -11 -38 -38 -63 -27 -25 -43 -56 -36 -68 7 -12 6 -16 -3 -8 -8 7 -37 -10 -63 -38 -27 -29 -48 -40 -48 -26 0 15 -6 21 -13 14 -7 -7 0 -28 15 -47 19 -23 20 -30 3 -20 -16 10 -30 2 -39 -21 -7 -20 -38 -57 -69 -84 -31 -26 -52 -54 -47 -62 5 -9 -4 -27 -20 -40 -29 -24 -31 11 -12 166 1 9 13 10 27 2 19 -11 20 -8 1 12 -18 20 -14 34 20 64 24 22 33 33 19 26 -46 -23 -7 97 44 133 10 8 21 30 24 50 2 20 14 39 26 43 12 4 16 16 10 26 -6 10 -4 18 6 18 10 0 38 28 64 63 26 34 34 55 19 46 -18 -10 -17 -3 5 23 35 41 68 127 60 155 -2 10 9 13 25 6 20 -7 26 -2 19 18 -6 16 -1 29 12 29 13 0 18 9 11 20 -7 11 -1 21 14 22 21 1 21 3 0 12 -17 6 -19 18 -7 33 11 13 21 32 23 43 2 11 10 19 17 17 14 -4 17 20 36 263 7 88 16 150 20 137 5 -12 26 -18 46 -13z"/> <path d="M5260 18605 c113 -210 16 -438 -350 -825 -424 -449 -540 -772 -420 -1173 60 -201 100 -214 100 -33 1 296 192 561 615 854 464 321 621 562 535 823 -47 140 -264 331 -465 407 l-54 21 39 -74z m260 -275 c10 -27 28 -50 38 -50 11 0 26 -20 35 -45 22 -66 22 -175 -1 -175 -12 0 -11 -9 2 -22 26 -26 11 -81 -28 -104 -15 -9 -22 -25 -15 -35 6 -11 -2 -25 -20 -31 -17 -7 -26 -20 -20 -29 5 -9 -15 -31 -45 -47 -31 -17 -48 -31 -38 -31 10 -1 -22 -30 -70 -65 -48 -35 -91 -61 -94 -58 -4 2 -29 -19 -55 -47 -26 -29 -53 -52 -58 -51 -44 1 -52 -2 -41 -20 7 -11 5 -20 -5 -20 -9 0 -28 9 -41 20 -17 15 -19 13 -4 -4 26 -31 26 -62 0 -46 -11 7 -20 2 -20 -10 0 -12 -8 -17 -18 -11 -10 6 -23 -4 -30 -21 -10 -25 -19 -27 -40 -10 -22 19 -27 16 -25 -11 2 -19 -19 -46 -47 -61 -27 -14 -48 -35 -45 -46 3 -11 -3 -20 -14 -20 -10 0 -34 -16 -53 -35 -19 -19 -44 -35 -55 -35 -10 0 -26 -18 -35 -40 -15 -39 -15 -39 -17 2 0 25 17 50 43 61 30 14 36 25 20 35 -13 8 -24 5 -24 -7 0 -11 -10 -21 -23 -21 -13 0 -7 18 14 41 20 22 39 56 42 75 3 18 14 36 26 40 12 4 21 16 21 27 0 11 27 42 60 70 33 28 60 63 60 77 0 15 24 46 53 69 29 22 47 41 40 41 -7 0 3 18 22 40 18 22 45 40 58 40 14 0 31 10 39 23 9 15 5 18 -14 9 -15 -8 -11 -1 11 17 21 17 46 31 55 31 9 0 15 7 13 15 -7 30 32 96 77 132 26 20 42 44 36 53 -6 10 4 26 23 36 18 11 35 39 37 63 1 24 12 50 24 58 31 19 53 103 27 103 -29 0 43 76 74 78 15 1 35 -20 45 -48z"/> <path d="M6002 16992 c4 -4 93 -36 197 -71 1065 -355 752 -884 -669 -1130 -1256 -217 -3083 -80 -3726 279 -107 60 -139 47 -54 -23 482 -395 2330 -643 3640 -488 451 53 819 125 1182 232 67 20 -9 -463 -134 -851 -463 -1435 -1854 -2344 -3198 -2089 -320 61 -206 -14 211 -138 1442 -431 3098 428 3620 1877 20 55 38 103 41 107 3 4 58 -13 122 -37 733 -276 1515 449 1294 1201 -159 542 -797 891 -1268 695 -68 -29 -72 -28 -150 35 -158 129 -457 255 -871 368 -136 37 -260 54 -237 33z m1045 -580 c32 12 173 -46 173 -71 0 -10 -16 -30 -35 -45 -43 -32 -43 -24 -45 -491 -2 -212 -9 -385 -17 -385 -8 0 -17 -29 -20 -65 -5 -70 -15 -142 -35 -260 -9 -53 -3 -90 21 -126 18 -27 26 -60 19 -73 -9 -13 -5 -17 9 -8 38 23 26 -19 -16 -57 -22 -20 -49 -28 -63 -20 -15 9 -19 7 -11 -7 8 -12 -4 -32 -26 -44 -23 -12 -41 -31 -41 -43 0 -11 -20 -49 -45 -84 -25 -35 -45 -67 -46 -73 -7 -61 -37 -142 -60 -161 -16 -13 -24 -31 -18 -41 6 -9 -8 -35 -30 -57 -23 -23 -39 -49 -36 -59 3 -9 -22 -47 -55 -85 -32 -37 -57 -71 -54 -77 3 -5 -17 -39 -45 -74 -28 -35 -51 -69 -51 -75 0 -7 -29 -42 -65 -78 -36 -37 -87 -100 -115 -139 -27 -40 -61 -73 -75 -73 -14 -1 -25 -11 -25 -22 0 -12 -9 -16 -20 -9 -12 7 -19 1 -15 -14 3 -14 -6 -24 -19 -21 -14 3 -20 -8 -13 -25 7 -19 -1 -30 -21 -30 -18 0 -32 -14 -32 -32 0 -20 -11 -28 -30 -21 -16 6 -27 5 -25 -3 3 -8 0 -14 -5 -14 -6 -1 -45 -35 -88 -77 -44 -42 -90 -70 -106 -64 -15 6 -23 2 -16 -9 7 -11 2 -20 -10 -20 -12 0 -17 -9 -10 -20 7 -11 2 -20 -10 -20 -13 0 -52 -22 -88 -50 -36 -27 -80 -50 -98 -50 -17 0 -38 -10 -45 -21 -7 -12 -26 -17 -42 -11 -16 7 -25 4 -19 -5 6 -9 -21 -28 -59 -43 -38 -15 -69 -35 -69 -44 0 -9 -17 -16 -37 -16 -20 0 -43 -7 -51 -15 -9 -8 -21 -15 -29 -16 -7 0 -34 -12 -60 -27 -26 -14 -42 -17 -35 -5 7 11 3 26 -8 33 -12 7 -20 6 -18 -4 7 -42 -5 -66 -32 -66 -27 0 -39 24 -32 66 2 10 -6 12 -17 5 -10 -7 -14 -25 -8 -41 7 -19 -9 -38 -44 -54 -46 -21 -57 -21 -65 1 -6 20 -13 21 -23 4 -11 -17 -20 -16 -37 4 -17 21 -10 27 32 31 30 2 72 25 94 51 54 64 130 104 131 69 1 -14 11 -6 23 19 19 39 64 56 121 47 8 -1 13 5 10 13 -3 8 3 16 13 18 10 2 27 18 36 36 10 17 27 27 37 20 11 -6 19 -1 19 11 0 12 9 17 20 10 12 -7 14 2 6 22 -10 27 -5 32 22 22 19 -8 30 -7 25 1 -5 8 4 27 19 41 15 14 28 21 28 16 0 -6 21 9 46 34 26 24 43 51 39 59 -4 8 4 15 18 15 34 0 277 242 277 276 0 14 7 22 15 17 15 -9 50 21 66 57 5 11 16 18 24 15 8 -3 13 2 11 10 -8 26 52 105 79 105 17 0 22 16 14 48 -10 37 -3 51 29 61 23 8 42 27 42 43 0 16 13 34 30 41 16 6 25 18 20 27 -15 24 81 182 100 165 9 -8 10 -4 3 9 -13 22 18 100 49 126 24 20 58 98 58 134 0 21 17 50 38 65 21 15 34 39 28 54 -6 15 -1 27 9 27 11 0 19 16 19 35 -2 60 31 154 62 177 20 14 23 26 9 35 -14 9 -5 59 25 150 26 75 50 176 55 225 4 48 16 87 26 85 43 -8 33 355 -10 392 -23 20 -41 45 -41 57 0 11 -11 25 -25 31 -19 7 -18 15 5 31 27 19 27 21 0 22 -23 1 -20 9 10 31 22 16 58 45 80 64 22 19 58 44 80 56 22 11 40 29 41 40 2 46 76 169 102 169 16 0 24 9 17 20 -7 12 -6 50 2 85 10 41 18 52 23 31 4 -19 19 -29 32 -24z m808 -192 c539 -232 506 -1051 -51 -1261 -196 -74 -630 -16 -594 79 65 167 118 669 104 967 l-12 234 74 20 c160 44 316 31 479 -39z"/> <path d="M3746 15071 c-188 -82 -338 -314 -322 -500 17 -194 83 -273 797 -946 l130 -123 403 394 c501 489 559 593 476 844 -118 355 -571 476 -825 222 l-60 -60 -47 52 c-118 128 -393 186 -552 117z m254 -151 c0 -11 22 -20 50 -20 27 0 107 -22 179 -49 94 -35 145 -44 185 -33 31 9 72 14 91 11 19 -3 35 7 35 23 0 15 10 28 21 28 12 0 16 -8 10 -19 -6 -10 -2 -24 9 -31 12 -7 20 -6 18 4 -8 46 5 69 32 59 17 -7 30 -3 30 7 0 11 36 17 80 15 44 -3 80 -11 80 -19 0 -8 12 -10 26 -5 15 6 47 -8 73 -30 25 -22 53 -36 61 -31 9 5 26 -17 40 -50 14 -33 33 -60 42 -60 10 0 18 -54 18 -120 0 -67 -9 -120 -20 -120 -11 0 -20 -16 -21 -35 0 -36 -59 -128 -59 -94 0 11 -12 -3 -25 -29 -63 -122 -138 -49 -116 113 1 14 -6 25 -17 25 -23 0 -52 78 -44 118 3 17 -6 23 -26 16 -18 -8 -45 7 -69 36 -21 27 -43 43 -50 36 -7 -6 -18 3 -25 22 -10 26 -19 28 -40 10 -22 -18 -28 -17 -28 5 -1 23 -3 23 -18 -1 -10 -15 -28 -21 -40 -13 -12 7 -22 3 -22 -9 0 -13 -26 -5 -57 18 -32 22 -65 34 -73 26 -9 -8 -10 -3 -2 11 15 26 -5 33 -78 28 -139 -9 -170 -16 -180 -39 -5 -15 -19 -21 -30 -14 -12 7 -19 1 -15 -14 3 -14 -6 -24 -19 -21 -15 3 -20 -8 -12 -29 8 -20 5 -28 -9 -19 -42 26 -63 -128 -25 -187 11 -16 20 -21 20 -10 1 11 15 -4 31 -34 35 -65 9 -155 -46 -158 -24 -1 -27 -5 -8 -12 22 -9 23 -14 2 -27 -15 -9 29 -11 97 -5 98 9 124 6 126 -16 3 -65 17 -108 37 -114 12 -4 21 -21 21 -37 0 -16 9 -24 20 -17 11 7 20 3 20 -8 0 -11 14 -16 30 -9 22 8 27 2 18 -21 -7 -17 -3 -32 8 -32 11 0 25 11 31 25 6 15 10 11 11 -10 1 -19 11 -35 21 -35 11 0 14 16 8 35 -10 28 -6 27 20 -5 68 -85 17 -186 -93 -185 -43 0 -54 7 -44 32 7 17 6 26 -2 18 -19 -20 -91 23 -77 46 7 11 5 18 -5 15 -9 -3 -38 11 -66 32 -27 20 -35 32 -16 25 23 -7 31 -2 23 17 -6 15 -34 30 -64 34 -38 4 -51 16 -47 41 3 21 -7 35 -26 35 -17 0 -68 36 -112 80 -45 44 -88 80 -96 80 -19 0 -102 113 -102 139 0 12 -9 21 -20 21 -11 0 -20 14 -20 30 0 17 -10 30 -21 30 -12 0 -16 9 -9 20 7 11 3 20 -9 20 -34 0 -26 232 9 267 17 17 30 40 30 53 0 12 8 17 19 11 10 -6 24 7 31 29 7 22 19 41 26 42 8 0 28 4 44 8 17 4 50 10 74 15 25 4 51 14 59 21 21 21 87 17 87 -6z m140 -350 c0 -40 -10 -50 -50 -50 -48 0 -71 53 -37 87 34 34 87 11 87 -37z m91 16 c-5 -40 -42 -57 -60 -27 -17 27 4 61 38 61 15 0 25 -15 22 -34z m385 -42 c96 -62 136 -234 75 -315 -39 -52 -38 -110 2 -168 l34 -47 -102 12 c-305 36 -478 235 -376 432 66 128 239 169 367 86z"/> <path d="M4320 14380 c0 -30 10 -41 35 -36 19 4 35 20 35 36 0 16 -16 32 -35 36 -25 5 -35 -6 -35 -36z"/> <path d="M4430 14400 c-17 -27 6 -60 41 -60 16 0 29 18 29 40 0 41 -48 55 -70 20z"/> <path d="M4554 14407 c-28 -27 -13 -70 21 -63 19 4 35 19 35 35 0 31 -35 49 -56 28z"/> <path d="M2480 13146 c-2425 -421 -1172 -1245 1900 -1248 962 -2 2240 116 2240 206 0 11 -25 14 -55 8 -327 -69 -1723 -113 -2375 -74 -2121 125 -3038 664 -1771 1041 255 75 282 105 61 67z m-791 -516 c-2 -38 4 -64 13 -59 14 9 67 -73 83 -126 3 -8 11 -13 19 -10 17 5 44 -74 30 -88 -6 -6 -32 1 -57 15 -26 15 -58 28 -71 30 -82 14 -166 55 -166 82 0 18 -11 26 -29 19 -17 -7 -46 10 -70 41 -51 65 -51 80 1 96 22 8 35 19 29 26 -7 7 17 27 52 46 98 50 171 19 166 -72z"/> </g> </svg> 